<?xml version="1.0" encoding="UTF-8" standalone="no"?>
<!-- Created with Inkscape (http://www.inkscape.org/) -->

<svg
   version="1.1"
   id="svg48"
   width="188.97333"
   height="188.97333"
   viewBox="0 0 188.97333 188.97333"
   xmlns="http://www.w3.org/2000/svg"
   xmlns:svg="http://www.w3.org/2000/svg">
  <defs
     id="defs52" />
  <g
     id="g56"
     transform="matrix(1.3333333,0,0,-1.3333333,0,188.97333)">
    <g
       id="g58"
       transform="scale(0.1)">
      <path
         d="M 786.445,1125.47 C 719.773,1201.39 625.48,1245.55 532.539,1264.89 429.695,1160.1 383.477,1021.86 411.418,871.074 446.094,683.988 594.063,545.328 775.957,506.559 c 156.27,180.769 165.789,442.035 10.488,618.911 z"
         style="fill:none;stroke:#231f20;stroke-width:34.1714;stroke-linecap:butt;stroke-linejoin:miter;stroke-miterlimit:4;stroke-dasharray:none;stroke-opacity:1"
         id="path60" />
      <path
         d="m 873.922,965.074 c 35.351,37.746 81.734,70.206 142.588,90.966 0,0 131.3,-239.087 -112.268,-467.329 0,0 -67.445,-57.469 -115.554,-76.906"
         style="fill:none;stroke:#231f20;stroke-width:34.1714;stroke-linecap:butt;stroke-linejoin:miter;stroke-miterlimit:4;stroke-dasharray:none;stroke-opacity:1"
         id="path62" />
      <path
         d="m 896.141,851.672 c 67.117,97 171.039,194.968 331.939,265.708 l 12.45,4.57"
         style="fill:none;stroke:#231f20;stroke-width:25.1485;stroke-linecap:butt;stroke-linejoin:miter;stroke-miterlimit:4;stroke-dasharray:none;stroke-opacity:1"
         id="path64" />
      <path
         d="M 480.52,705.168 C 421.188,678.77 365.602,640.441 317.445,590.285 258.574,528.969 217.887,457.023 194.785,381.352 c 173.051,-82.024 386.813,-57.891 540.524,78.093 21.386,18.926 40.765,39.266 58.113,60.762"
         style="fill:none;stroke:#231f20;stroke-width:34.1714;stroke-linecap:butt;stroke-linejoin:miter;stroke-miterlimit:4;stroke-dasharray:none;stroke-opacity:1"
         id="path66" />
      <path
         d="m 762.836,505.379 c 0,0 -375.856,327.598 -111.789,886.391"
         style="fill:none;stroke:#231f20;stroke-width:25.1485;stroke-linecap:butt;stroke-linejoin:miter;stroke-miterlimit:4;stroke-dasharray:none;stroke-opacity:1"
         id="path68" />
      <path
         d="m 799.918,528.293 c 0,0 -322.754,-237.293 -740.9141,-13.09"
         style="fill:none;stroke:#231f20;stroke-width:25.1485;stroke-linecap:butt;stroke-linejoin:miter;stroke-miterlimit:4;stroke-dasharray:none;stroke-opacity:1"
         id="path70" />
      <path
         d="m 1207.66,370.102 v 247.007 h -181.19 v -53.277 h 121.47 V 409.531 c -40.72,-12.91 -84.15,-19.371 -130.29,-19.371 -42.529,0 -79.396,8.762 -110.611,26.289 -31.215,17.531 -55.422,42.211 -72.609,74.039 -17.196,31.828 -25.785,69.418 -25.785,112.782 0,42.433 8.589,79.679 25.785,111.746 17.187,32.054 41.277,57.191 72.269,75.418 30.985,18.214 66.61,27.332 106.881,27.332 30.3,0 60.28,-3.461 89.91,-10.379 29.63,-6.922 56.43,-17.074 80.42,-30.446 l 11.53,53.969 c -25.34,14.293 -53.05,25.137 -83.13,32.52 -30.09,7.375 -60.73,11.07 -91.95,11.07 -40.266,0 -77.251,-6.691 -110.946,-20.066 -33.707,-13.383 -62.887,-32.289 -87.535,-56.735 -24.664,-24.457 -43.77,-53.277 -57.344,-86.488 -13.57,-33.215 -20.355,-69.887 -20.355,-110.016 0,-52.586 11.535,-99.062 34.605,-139.422 23.074,-40.367 55.074,-71.851 96.024,-94.445 40.937,-22.609 88.097,-33.906 141.481,-33.906 66.95,0 130.74,12.219 191.37,36.68 v 0"
         style="fill:#231f20;fill-opacity:1;fill-rule:nonzero;stroke:none"
         id="path72" />
      <path
         d="m 1207.66,370.102 v 247.007 h -181.19 v -53.277 h 121.47 V 409.531 c -40.72,-12.91 -84.15,-19.371 -130.29,-19.371 -42.529,0 -79.396,8.762 -110.611,26.289 -31.215,17.531 -55.422,42.211 -72.609,74.039 -17.196,31.828 -25.785,69.418 -25.785,112.782 0,42.433 8.589,79.679 25.785,111.746 17.187,32.054 41.277,57.191 72.269,75.418 30.985,18.214 66.61,27.332 106.881,27.332 30.3,0 60.28,-3.461 89.91,-10.379 29.63,-6.922 56.43,-17.074 80.42,-30.446 l 11.53,53.969 c -25.34,14.293 -53.05,25.137 -83.13,32.52 -30.09,7.375 -60.73,11.07 -91.95,11.07 -40.266,0 -77.251,-6.691 -110.946,-20.066 -33.707,-13.383 -62.887,-32.289 -87.535,-56.735 -24.664,-24.457 -43.77,-53.277 -57.344,-86.488 -13.57,-33.215 -20.355,-69.887 -20.355,-110.016 0,-52.586 11.535,-99.062 34.605,-139.422 23.074,-40.367 55.074,-71.851 96.024,-94.445 40.937,-22.609 88.097,-33.906 141.481,-33.906 66.95,0 130.74,12.219 191.37,36.68 z"
         style="fill:none;stroke:#231f20;stroke-width:7.24847;stroke-linecap:butt;stroke-linejoin:miter;stroke-miterlimit:4;stroke-dasharray:none;stroke-opacity:1"
         id="path74" />
      <path
         d="M 519.867,1367.07 C 156.238,1262.8 -54.0156,883.492 50.2539,519.863 154.523,156.238 533.828,-54.0195 897.457,50.25 1261.08,154.52 1471.34,533.828 1367.07,897.453 1262.8,1261.08 883.492,1471.34 519.867,1367.07 Z"
         style="fill:none;stroke:#231f20;stroke-width:41.4198;stroke-linecap:butt;stroke-linejoin:miter;stroke-miterlimit:4;stroke-dasharray:none;stroke-opacity:1"
         id="path76" />
    </g>
  </g>
</svg>
