<?xml version="1.0" encoding="utf-8"?>
<!-- Generator: Adobe Illustrator 26.5.0, SVG Export Plug-In . SVG Version: 6.00 Build 0)  -->
<svg version="1.1" xmlns="http://www.w3.org/2000/svg" xmlns:xlink="http://www.w3.org/1999/xlink" x="0px" y="0px"
	 viewBox="0 0 64 64" style="enable-background:new 0 0 64 64;" xml:space="preserve">
<style type="text/css">
	.st0{display:none;}
	.st1{display:inline;fill:#72778F;}
	.st2{font-family:'FontAwesome5Free-Solid';}
	.st3{font-size:51.1997px;}
	.st4{fill:#72778F;}
</style>
<g id="Community" class="st0">
	<text transform="matrix(1 0 0 1 -0.0903 49.2777)" class="st1 st2 st3"></text>
</g>
<g id="Home">
	<g id="Haus" transform="translate(-319.046 -300.603)">
		<path id="Pfad_9173" class="st4" d="M356.12,358.2v-15.2h-10.16v14.91c-0.37,0.12-0.75,0.21-1.13,0.26c-4.54,0-9.07,0.04-13.61,0
			c-2.24-0.02-3.13-0.92-3.14-3.14c-0.03-5.84-0.03-11.69,0.03-17.53c0.02-0.72,0.32-1.41,0.83-1.92
			c7.28-6.08,14.61-12.1,22.02-18.21c0.51,0.38,1.01,0.71,1.47,1.09c6.69,5.5,13.35,11.03,20.07,16.5c1.01,0.7,1.58,1.88,1.52,3.1
			c-0.09,5.5-0.03,11-0.04,16.5c0,2.79-0.78,3.6-3.5,3.61C365.8,358.21,361.14,358.2,356.12,358.2z"/>
		<path id="Pfad_9174" class="st4" d="M351,313.85c-8.82,7.36-17.46,14.59-26.15,21.76c-0.76,0.64-2.31,1.49-2.69,1.2
			c-1.26-1.03-2.31-2.29-3.09-3.72c-0.19-0.32,0.7-1.5,1.32-2.02c8.63-7.25,17.29-14.48,25.97-21.67c0.47-0.4,0.94-0.8,1.43-1.18
			c1.88-1.68,4.73-1.64,6.58,0.08c3.02,2.47,6,4.99,9.43,7.85c0-2.56,0.05-4.71-0.02-6.85c-0.05-1.55,0.49-2.29,2.14-2.21
			c1.92,0.1,3.84,0.1,5.76,0c1.68-0.09,2.33,0.51,2.3,2.24c-0.08,4.54-0.1,9.08,0.03,13.61c0.08,1.03,0.54,2,1.28,2.73
			c2.16,2.01,4.48,3.84,6.79,5.7c0.87,0.45,1.21,1.52,0.76,2.39c-0.11,0.21-0.26,0.4-0.44,0.55c-2.7,3.45-2.67,3.48-5.96,0.73
			l-23.43-19.55C352.41,314.97,351.76,314.47,351,313.85z"/>
	</g>
</g>
</svg>
