<svg xmlns="http://www.w3.org/2000/svg" xmlns:xlink="http://www.w3.org/1999/xlink" width="386.729" height="196.289" viewBox="0 0 386.729 196.289">
  <defs>
    <linearGradient id="linear-gradient" x1="0.552" y1="-1.481" x2="0.673" y2="1.111" gradientUnits="objectBoundingBox">
      <stop offset="0" stop-color="#53900c"/>
      <stop offset="1" stop-color="#6e6e6e"/>
    </linearGradient>
    <filter id="bg_button_copy" x="0" y="0" width="386.729" height="196.289" filterUnits="userSpaceOnUse">
      <feOffset dx="20" dy="20" input="SourceAlpha"/>
      <feGaussianBlur stdDeviation="25" result="blur"/>
      <feFlood flood-color="#383838" flood-opacity="0.306"/>
      <feComposite operator="in" in2="blur"/>
      <feComposite in="SourceGraphic"/>
    </filter>
  </defs>
  <g id="Antwort_button" transform="translate(55 55)">
    <g transform="matrix(1, 0, 0, 1, -55, -55)" filter="url(#bg_button_copy)">
      <path id="bg_button_copy-2" data-name="bg button copy" d="M22.44,0H214.289a22.44,22.44,0,0,1,22.44,22.44v1.408a22.44,22.44,0,0,1-22.44,22.44H22.44A22.44,22.44,0,0,1,0,23.848V22.44A22.44,22.44,0,0,1,22.44,0Z" transform="translate(55 55)" fill="url(#linear-gradient)"/>
    </g>
    <text id="Jetzt_antworten" data-name="Jetzt antworten" transform="translate(130.252 30.144)" fill="#f5f5f5" font-size="20" font-family="WorkSans-SemiBold, Work Sans" font-weight="600"><tspan x="-79.86" y="0">Jetzt antworten</tspan></text>
    <path id="Icon_answer" data-name="Icon answer" d="M83.2-870.4h9.6V-872H83.2Zm0-2.4h9.6v-1.6H83.2Zm0-2.4h9.6v-1.6H83.2ZM96-864l-3.2-3.2H81.6a1.541,1.541,0,0,1-1.13-.47A1.541,1.541,0,0,1,80-868.8v-9.6a1.541,1.541,0,0,1,.47-1.13A1.541,1.541,0,0,1,81.6-880H94.4a1.541,1.541,0,0,1,1.13.47A1.541,1.541,0,0,1,96-878.4Zm-14.4-4.8H93.48l.92.9v-10.5H81.6Zm0,0v0Z" transform="translate(-59.497 895.145)" fill="#e8eaed"/>
  </g>
</svg>
