<svg xmlns="http://www.w3.org/2000/svg"><defs><font id="Material Design Icons" horiz-adv-x="24"><font-face font-family="Material Design Icons" units-per-em="512" ascent="448" descent="64"/><glyph glyph-name="access-point" unicode="" horiz-adv-x="512" d="M105.173 342.827C66.56 304.213 42.667 250.88 42.667 192c0-58.88 23.893-112.213 62.506-150.827l30.08 30.08C104.32 101.973 85.333 144.64 85.333 192c0 47.147 18.987 90.027 49.92 120.747l-30.08 30.08m301.654 0l-30.08-30.08c30.933-30.72 49.92-73.6 49.92-120.747 0-47.36-18.987-90.027-49.92-120.747l30.08-30.08C445.44 79.787 469.333 133.12 469.333 192c0 58.88-23.893 112.213-62.506 150.827m-241.28-60.374C142.293 259.2 128 227.2 128 192s14.293-67.2 37.547-90.453l30.08 30.08c-15.36 15.36-24.96 36.693-24.96 60.373s9.6 45.013 24.96 60.373l-30.08 30.08m180.906 0l-30.08-30.08c15.36-15.36 24.96-36.693 24.96-60.373s-9.6-45.013-24.96-60.373l30.08-30.08C369.707 124.8 384 156.8 384 192s-14.293 67.2-37.547 90.453M256 234.667c-23.467 0-42.667-19.2-42.667-42.667s19.2-42.667 42.667-42.667 42.667 19.2 42.667 42.667-19.2 42.667-42.667 42.667z"/><glyph glyph-name="access-point-network" unicode="" horiz-adv-x="512" d="M105.173 364.16c-38.613-38.613-62.506-91.947-62.506-150.827 0-58.88 23.893-112.213 62.506-150.826l30.08 30.08c-30.933 30.72-49.92 73.386-49.92 120.746 0 47.147 18.987 90.027 49.92 120.747l-30.08 30.08m301.654 0l-30.08-30.08c30.933-30.72 49.92-73.6 49.92-120.747 0-47.36-18.987-90.026-49.92-120.746l30.08-30.08c38.613 38.613 62.506 91.946 62.506 150.826 0 58.88-23.893 112.214-62.506 150.827m-241.28-60.373C142.293 280.533 128 248.533 128 213.333c0-35.2 14.293-67.2 37.547-90.453l30.08 30.08c-15.36 15.36-24.96 36.693-24.96 60.373s9.6 45.014 24.96 60.374l-30.08 30.08m180.906 0l-30.08-30.08c15.36-15.36 24.96-36.694 24.96-60.374s-9.6-45.013-24.96-60.373l30.08-30.08C369.707 146.133 384 178.133 384 213.333s-14.293 67.2-37.547 90.454M256 256c-23.467 0-42.667-19.2-42.667-42.667s19.2-42.666 42.667-42.666 42.667 19.2 42.667 42.666S279.467 256 256 256m-21.333-128V42.667h-21.334c-11.733 0-21.333-9.6-21.333-21.334H42.667v-42.666H192c0-11.734 9.6-21.334 21.333-21.334h85.334c11.733 0 21.333 9.6 21.333 21.334h149.333v42.666H320c0 11.734-9.6 21.334-21.333 21.334h-21.334V128h-42.666z"/><glyph glyph-name="access-point-network-off" unicode="﮽" horiz-adv-x="512" d="M316.373 152.96c15.36 15.36 24.96 36.693 24.96 60.373s-9.6 45.014-24.96 60.374l30.08 30.08C369.707 280.533 384 248.533 384 213.333c0-35.2-14.293-67.2-37.547-90.453l-30.08 30.08m-17.706 60.373C298.667 236.8 279.467 256 256 256c-12.8 0-24.107-5.76-32-14.507l60.16-60.16c8.747 7.894 14.507 19.2 14.507 32m78.08-120.746l30.08-30.08c38.613 38.613 62.506 91.946 62.506 150.826 0 58.88-23.893 112.214-62.506 150.827l-30.08-30.08c30.933-30.72 49.92-73.6 49.92-120.747 0-47.36-18.987-90.026-49.92-120.746M469.333-3.84v25.173H444.16L469.333-3.84m-36.906-17.493L448-36.907 420.907-64 378.24-21.333H320c0-11.734-9.6-21.334-21.333-21.334h-85.334c-11.733 0-21.333 9.6-21.333 21.334H42.667v42.666H192c0 11.734 9.6 21.334 21.333 21.334h21.334v79.573l-56.747 56.747c4.267-9.814 10.24-18.987 17.707-26.027l-30.08-30.08C142.293 146.133 128 178.133 128 213.333c0 4.907 0 9.814.853 14.72L93.227 263.68c-4.907-16-7.894-32.853-7.894-50.347 0-47.36 18.987-90.026 49.92-120.746l-30.08-30.08C66.56 101.12 42.667 154.453 42.667 213.333c0 29.654 6.186 58.027 17.28 83.627l-38.614 38.613 27.307 27.094 30.293-30.294 30.934-30.933 31.573-31.573 32.853-33.067 45.014-44.8 15.36-15.147L389.76 21.333h.213l42.667-42.666h-.213m-96.854 42.666l-58.24 58.24V42.667h21.334c11.733 0 21.333-9.6 21.333-21.334h15.573z"/><glyph glyph-name="account" unicode="" horiz-adv-x="512" d="M256 362.667c47.147 0 85.333-38.187 85.333-85.334S303.147 192 256 192s-85.333 38.187-85.333 85.333 38.186 85.334 85.333 85.334m0-213.334c94.293 0 170.667-38.186 170.667-85.333V21.333H85.333V64c0 47.147 76.374 85.333 170.667 85.333z"/><glyph glyph-name="account-alert" unicode="" horiz-adv-x="512" d="M213.333 362.667c47.147 0 85.334-38.187 85.334-85.334S260.48 192 213.333 192 128 230.187 128 277.333s38.187 85.334 85.333 85.334m0-213.334C307.627 149.333 384 111.147 384 64V21.333H42.667V64c0 47.147 76.373 85.333 170.666 85.333M426.667 192v106.667h42.666V192h-42.666m0-85.333v42.666h42.666v-42.666h-42.666z"/><glyph glyph-name="account-alert-outline" unicode="שּׁ" horiz-adv-x="512" d="M426.667 192v106.667h42.666V192h-42.666m0-85.333v42.666h42.666v-42.666h-42.666m-213.334 64c56.96 0 170.667-28.587 170.667-85.334v-64H42.667v64c0 56.747 113.706 85.334 170.666 85.334m0 192c47.147 0 85.334-38.187 85.334-85.334S260.48 192 213.333 192 128 230.187 128 277.333s38.187 85.334 85.333 85.334m0-232.534c-63.36 0-130.133-31.146-130.133-44.8V61.867h260.267v23.466c0 13.654-66.774 44.8-130.134 44.8m0 192c-24.746 0-44.8-20.053-44.8-44.8 0-24.746 20.054-44.8 44.8-44.8 24.747 0 44.8 20.054 44.8 44.8 0 24.747-20.053 44.8-44.8 44.8z"/><glyph glyph-name="account-arrow-left" unicode="שּׂ" horiz-adv-x="512" d="M384 0l-64 64 64 64V85.333h85.333V42.667H384V0M213.333 362.667c47.147 0 85.334-38.187 85.334-85.334S260.48 192 213.333 192 128 230.187 128 277.333s38.187 85.334 85.333 85.334m0-213.334c24.534 0 48-2.56 69.12-7.253C265.813 120.533 256 93.44 256 64c0-14.933 2.56-29.227 7.253-42.667H42.667V64c0 47.147 76.373 85.333 170.666 85.333z"/><glyph glyph-name="account-arrow-left-outline" unicode="אַ" horiz-adv-x="512" d="M384 0l-64 64 64 64V85.333h85.333V42.667H384V0M277.333 64c0-15.147 3.2-29.653 8.96-42.667H42.667v64c0 47.147 76.373 85.334 170.666 85.334 21.334 0 41.814-1.92 60.8-5.547 17.707-3.413 33.92-8.107 48.214-14.08-27.307-19.413-45.014-51.2-45.014-87.04m-192 21.333V64h149.334c0 22.187 4.906 43.307 13.653 62.293L213.333 128c-70.613 0-128-19.2-128-42.667m128 277.334c47.147 0 85.334-38.187 85.334-85.334S260.48 192 213.333 192 128 230.187 128 277.333s38.187 85.334 85.333 85.334m0-42.667c-23.466 0-42.666-19.2-42.666-42.667s19.2-42.666 42.666-42.666S256 253.867 256 277.333 236.8 320 213.333 320z"/><glyph glyph-name="account-arrow-right" unicode="אָ" horiz-adv-x="512" d="M405.333 0v42.667H320v42.666h85.333V128l64-64-64-64m-192 362.667c47.147 0 85.334-38.187 85.334-85.334S260.48 192 213.333 192 128 230.187 128 277.333s38.187 85.334 85.333 85.334m0-213.334c24.534 0 48-2.56 69.12-7.253C265.813 120.533 256 93.44 256 64c0-14.933 2.56-29.227 7.253-42.667H42.667V64c0 47.147 76.373 85.333 170.666 85.333z"/><glyph glyph-name="account-arrow-right-outline" unicode="אּ" horiz-adv-x="512" d="M405.333 0v42.667H320v42.666h85.333V128l64-64-64-64m-128 64c0-15.147 3.2-29.653 8.96-42.667H42.667v64c0 47.147 76.373 85.334 170.666 85.334 21.334 0 41.814-1.92 60.8-5.547 17.707-3.413 33.92-8.107 48.214-14.08-27.307-19.413-45.014-51.2-45.014-87.04m-192 21.333V64h149.334c0 22.187 4.906 43.307 13.653 62.293L213.333 128c-70.613 0-128-19.2-128-42.667m128 277.334c47.147 0 85.334-38.187 85.334-85.334S260.48 192 213.333 192 128 230.187 128 277.333s38.187 85.334 85.333 85.334m0-42.667c-23.466 0-42.666-19.2-42.666-42.667s19.2-42.666 42.666-42.666S256 253.867 256 277.333 236.8 320 213.333 320z"/><glyph glyph-name="account-badge" unicode="ﶃ" horiz-adv-x="512" d="M362.667 384h-64v-64h-85.334v64h-64c-23.466 0-42.666-19.2-42.666-42.667V0c0-23.467 19.2-42.667 42.666-42.667h213.334c23.466 0 42.666 19.2 42.666 42.667v341.333c0 23.467-19.2 42.667-42.666 42.667M256 277.333c23.467 0 42.667-19.2 42.667-42.666S279.467 192 256 192s-42.667 19.2-42.667 42.667 19.2 42.666 42.667 42.666m85.333-170.666H170.667V128c0 28.373 56.96 42.667 85.333 42.667s85.333-14.294 85.333-42.667v-21.333m-64 234.666h-42.666v85.334h42.666v-85.334m64-298.666H170.667V64h170.666V42.667M256 0h-85.333v21.333H256V0z"/><glyph glyph-name="account-badge-alert" unicode="ﶄ" horiz-adv-x="512" d="M320 384h-64v-64h-85.333v64h-64C83.2 384 64 364.8 64 341.333V0c0-23.467 19.2-42.667 42.667-42.667H320c23.467 0 42.667 19.2 42.667 42.667v341.333C362.667 364.8 343.467 384 320 384M213.333 277.333c23.467 0 42.667-19.2 42.667-42.666S236.8 192 213.333 192s-42.666 19.2-42.666 42.667 19.2 42.666 42.666 42.666m85.334-170.666H128V128c0 28.373 56.96 42.667 85.333 42.667s85.334-14.294 85.334-42.667v-21.333m-64 234.666H192v85.334h42.667v-85.334m64-298.666H128V64h170.667V42.667M213.333 0H128v21.333h85.333V0m192 192v106.667H448V192h-42.667m0-85.333v42.666H448v-42.666h-42.667z"/><glyph glyph-name="account-badge-alert-outline" unicode="ﶅ" horiz-adv-x="512" d="M320 384h-64v-42.667h64V0H106.667v341.333h64V384h-64C83.2 384 64 364.8 64 341.333V0c0-23.467 19.2-42.667 42.667-42.667H320c23.467 0 42.667 19.2 42.667 42.667v341.333C362.667 364.8 343.467 384 320 384m-106.667-85.333C236.8 298.667 256 279.467 256 256s-19.2-42.667-42.667-42.667-42.666 19.2-42.666 42.667 19.2 42.667 42.666 42.667M298.667 128H128v21.333C128 177.707 184.96 192 213.333 192s85.334-14.293 85.334-42.667V128m0-64H128v21.333h170.667V64m-85.334-42.667H128v21.334h85.333V21.333m21.334 320H192v85.334h42.667v-85.334M405.333 192v106.667H448V192h-42.667m0-85.333v42.666H448v-42.666h-42.667z"/><glyph glyph-name="account-badge-outline" unicode="ﶆ" horiz-adv-x="512" d="M362.667 384h-64v-42.667h64V0H149.333v341.333h64V384h-64c-23.466 0-42.666-19.2-42.666-42.667V0c0-23.467 19.2-42.667 42.666-42.667h213.334c23.466 0 42.666 19.2 42.666 42.667v341.333c0 23.467-19.2 42.667-42.666 42.667M256 298.667c23.467 0 42.667-19.2 42.667-42.667s-19.2-42.667-42.667-42.667-42.667 19.2-42.667 42.667 19.2 42.667 42.667 42.667M341.333 128H170.667v21.333c0 28.374 56.96 42.667 85.333 42.667s85.333-14.293 85.333-42.667V128m0-64H170.667v21.333h170.666V64M256 21.333h-85.333v21.334H256V21.333m21.333 320h-42.666v85.334h42.666v-85.334z"/><glyph glyph-name="account-box" unicode="" horiz-adv-x="512" d="M128 85.333c0 42.667 85.333 66.134 128 66.134S384 128 384 85.333V64H128m192 192c0-35.413-28.587-64-64-64s-64 28.587-64 64 28.587 64 64 64 64-28.587 64-64M64 341.333V42.667C64 19.2 83.2 0 106.667 0h298.666C428.8 0 448 19.2 448 42.667v298.666C448 364.8 428.8 384 405.333 384H106.667C82.987 384 64 364.8 64 341.333z"/><glyph glyph-name="account-box-multiple" unicode="盧" horiz-adv-x="512" d="M85.333 320H42.667V21.333c0-23.466 19.2-42.666 42.666-42.666H384v42.666H85.333V320m341.334 85.333c23.466 0 42.666-19.2 42.666-42.666v-256c0-23.467-19.2-42.667-42.666-42.667h-256C147.2 64 128 83.2 128 106.667v256c0 23.466 19.2 42.666 42.667 42.666h256m-64-106.666c0 35.413-28.587 64-64 64s-64-28.587-64-64 28.586-64 64-64 64 28.586 64 64M170.667 128v-21.333h256V128c0 42.667-85.334 66.133-128 66.133s-128-23.466-128-66.133z"/><glyph glyph-name="account-box-outline" unicode="" horiz-adv-x="512" d="M405.333 42.667H106.667v298.666h298.666m0 42.667H106.667C83.2 384 64 364.8 64 341.333V42.667C64 19.2 83.2 0 106.667 0h298.666C428.8 0 448 19.2 448 42.667v298.666c0 23.68-19.2 42.667-42.667 42.667M352 101.333c0 32-64 48-96 48s-96-16-96-48v-16h192m-96 101.334c26.453 0 48 21.546 48 48s-21.547 48-48 48-48-21.547-48-48 21.547-48 48-48z"/><glyph glyph-name="account-card-details" unicode="" horiz-adv-x="512" d="M42.667 384h426.666c22.4 0 42.667-20.267 42.667-42.667V42.667C512 20.267 491.733 0 469.333 0H42.667C20.267 0 0 20.267 0 42.667v298.666C0 363.733 20.267 384 42.667 384m256-64v-21.333h170.666V320H298.667m0-42.667V256h170.666v21.333H298.667m0-42.666v-21.334H448v21.334H298.667m-128-83.414c-42.667 0-128-23.253-128-65.92V64h256v21.333c0 42.667-85.334 65.92-128 65.92m0 168.747c-35.414 0-64-28.587-64-64s28.586-64 64-64 64 28.587 64 64-28.587 64-64 64z"/><glyph glyph-name="account-card-details-outline" unicode="ﶇ" horiz-adv-x="512" d="M469.333 384H42.667C19.413 383.147.853 364.587 0 341.333V42.667C.853 19.413 19.413.853 42.667 0h426.666C492.587.853 511.147 19.413 512 42.667v298.666c-.853 23.254-19.413 41.814-42.667 42.667m0-341.333H42.667v298.666h426.666V42.667M298.667 85.333V112c0 35.413-71.254 53.333-106.667 53.333S85.333 147.413 85.333 112V85.333h213.334M192 298.667c-29.44 0-53.333-23.894-53.333-53.334S162.56 192 192 192s53.333 23.893 53.333 53.333S221.44 298.667 192 298.667m106.667 0v-21.334h128v21.334h-128m0-42.667v-21.333h128V256h-128m0-42.667V192H384v21.333h-85.333"/><glyph glyph-name="account-check" unicode="" horiz-adv-x="512" d="M450.133 181.333L480 151.253 340.693 10.667l-74.026 74.666 29.866 30.08 44.16-44.373 109.44 110.293m-236.8-96l64-64H64V64c0 47.147 76.373 85.333 170.667 85.333l40.32-2.346-61.654-61.654m21.334 277.334c47.146 0 85.333-38.187 85.333-85.334S281.813 192 234.667 192s-85.334 38.187-85.334 85.333 38.187 85.334 85.334 85.334z"/><glyph glyph-name="account-check-outline" unicode="﮾" horiz-adv-x="512" d="M450.133 181.333L480 151.253 340.693 10.667l-74.026 74.666 29.866 30.08 44.16-44.373 109.44 110.293M234.667 362.667c47.146 0 85.333-38.187 85.333-85.334S281.813 192 234.667 192s-85.334 38.187-85.334 85.333 38.187 85.334 85.334 85.334m0-42.667C211.2 320 192 300.8 192 277.333s19.2-42.666 42.667-42.666 42.666 19.2 42.666 42.666S258.133 320 234.667 320m0-149.333c14.506 0 32-1.92 51.413-5.547l-35.627-35.627-15.786.64c-63.36 0-130.134-31.146-130.134-44.8V61.867H236.8l40.533-40.534H64v64c0 56.747 113.707 85.334 170.667 85.334z"/><glyph glyph-name="account-child" unicode="愈" horiz-adv-x="512" d="M256 405.333c35.413 0 64-28.586 64-64s-28.587-64-64-64-64 28.587-64 64 28.587 64 64 64M256 256c34.773 0 66.56-7.467 96-22.4 28.587-15.147 42.667-33.28 42.667-54.613V55.893c0-23.893-18.347-43.946-55.68-59.946v46.72c0 20.266-18.347 34.56-55.04 43.306C272 88.747 262.613 90.027 256 90.027c-18.56 0-36.267-3.627-52.48-11.094-16.427-7.253-26.24-16.64-29.44-27.946C202.667 39.68 229.973 33.92 256 33.92l21.333 2.133v-56.106L256-21.333c-29.227 0-56.96 5.973-82.987 17.28-37.333 16-55.68 36.053-55.68 59.946v123.094c0 21.333 14.08 39.466 42.667 54.613 29.44 14.933 61.44 22.4 96 22.4m0-42.667c-23.467 0-42.667-19.2-42.667-42.666S232.533 128 256 128s42.667 19.2 42.667 42.667-19.2 42.666-42.667 42.666z"/><glyph glyph-name="account-child-circle" unicode="憎" horiz-adv-x="512" d="M256 192c17.707 0 32-14.293 32-32s-14.293-32-32-32-32 14.293-32 32 14.293 32 32 32m0 213.333c117.76 0 213.333-95.573 213.333-213.333S373.76-21.333 256-21.333 42.667 74.24 42.667 192 138.24 405.333 256 405.333m0-298.666c15.36 0 29.867-3.2 43.52-10.667C313.173 89.6 320 81.067 320 71.04V33.92c28.587 12.8 42.667 28.373 42.667 47.147v93.866C362.667 192 352 205.867 329.6 217.6c-22.4 11.52-46.933 17.067-73.6 17.067s-51.2-5.547-73.6-17.067c-22.4-11.733-33.067-25.6-33.067-42.667V81.067c0-17.067 11.307-31.787 34.774-43.094 23.253-11.306 47.146-16.64 71.893-16.64l21.333 1.707v42.88L256 64c-21.333 0-42.667 4.267-62.933 13.013 2.56 8.32 10.24 14.934 23.04 20.907 12.586 5.973 25.813 8.747 39.893 8.747m0 256c-29.44 0-53.333-23.894-53.333-53.334S226.56 256 256 256s53.333 23.893 53.333 53.333S285.44 362.667 256 362.667z"/><glyph glyph-name="account-circle" unicode="" horiz-adv-x="512" d="M256 38.4c-53.333 0-100.48 27.307-128 68.267.64 42.666 85.333 66.133 128 66.133s127.36-23.467 128-66.133C356.48 65.707 309.333 38.4 256 38.4m0 302.933c35.413 0 64-28.586 64-64s-28.587-64-64-64-64 28.587-64 64 28.587 64 64 64m0 64C138.24 405.333 42.667 309.76 42.667 192S138.24-21.333 256-21.333 469.333 74.24 469.333 192c0 117.973-96 213.333-213.333 213.333z"/><glyph glyph-name="account-circle-outline" unicode="בּ" horiz-adv-x="512" d="M256 405.333C138.24 405.333 42.667 309.76 42.667 192S138.24-21.333 256-21.333 469.333 74.24 469.333 192 373.76 405.333 256 405.333M150.827 58.027C160 77.227 215.893 96 256 96s96-18.773 105.173-37.973C332.16 34.987 295.68 21.333 256 21.333c-39.68 0-76.16 13.654-105.173 36.694M391.68 88.96c-30.507 37.12-104.533 49.707-135.68 49.707S150.827 126.08 120.32 88.96C98.56 117.333 85.333 153.173 85.333 192c0 94.08 76.587 170.667 170.667 170.667S426.667 286.08 426.667 192c0-38.827-13.227-74.667-34.987-103.04M256 320c-41.387 0-74.667-33.28-74.667-74.667s33.28-74.666 74.667-74.666 74.667 33.28 74.667 74.666S297.387 320 256 320m0-106.667c-17.707 0-32 14.294-32 32s14.293 32 32 32 32-14.293 32-32-14.293-32-32-32z"/><glyph glyph-name="account-clock" unicode="גּ" horiz-adv-x="512" d="M226.773 147.2c34.134 75.093 122.667 108.16 197.76 74.027 75.094-34.134 108.16-122.667 74.027-197.76C474.453-29.867 421.333-64 362.667-64c-57.6 0-110.294 33.28-135.04 85.333H21.333V64c1.28 24.32 17.92 44.16 49.92 60.16S143.36 148.48 192 149.333c12.16 0 23.68-1.066 34.773-2.133M192 362.667c23.893-.64 43.947-8.96 59.947-24.96s23.893-36.054 23.893-60.374-7.893-44.373-23.893-60.373-36.054-23.893-59.947-23.893-43.947 7.893-59.947 23.893-23.893 36.053-23.893 60.373 7.893 44.374 23.893 60.374 36.054 24.32 59.947 24.96m170.667-384c58.88 0 106.666 47.786 106.666 106.666S421.547 192 362.667 192 256 144.213 256 85.333 303.787-21.333 362.667-21.333m-21.334 170.666h32v-60.16l52.054-30.08-16-27.733-68.054 39.253v78.72z"/><glyph glyph-name="account-clock-outline" unicode="דּ" horiz-adv-x="512" d="M341.333 149.333h32v-60.16l52.054-30.08-16-27.733-68.054 39.253v78.72M362.667 192C303.787 192 256 144.213 256 85.333S303.787-21.333 362.667-21.333 469.333 26.453 469.333 85.333 421.547 192 362.667 192m0 42.667c82.56 0 149.333-66.774 149.333-149.334S445.227-64 362.667-64c-59.52 0-110.934 34.987-135.04 85.333H21.333v64c0 56.747 113.707 85.334 170.667 85.334 12.8 0 28.587-1.494 45.227-4.267 26.453 40.96 72.746 68.267 125.44 68.267M213.333 85.333c0 14.934 2.134 29.44 6.187 42.667-8.96 1.493-18.347 2.133-27.52 2.133-63.36 0-130.133-31.146-130.133-44.8V61.867h153.386a143.142 143.142 0 00-1.92 23.466M192 362.667c47.147 0 85.333-38.187 85.333-85.334S239.147 192 192 192s-85.333 38.187-85.333 85.333 38.186 85.334 85.333 85.334m0-40.534c-24.747 0-44.8-20.053-44.8-44.8 0-24.746 20.053-44.8 44.8-44.8 24.747 0 44.8 20.054 44.8 44.8 0 24.747-20.053 44.8-44.8 44.8z"/><glyph glyph-name="account-convert" unicode="" horiz-adv-x="512" d="M160-10.667l28.8 28.587 81.28-81.28L256-64C121.813-64 11.947 39.253 1.067 170.667h32C40.747 90.453 90.667 22.613 160-10.667m192 405.334l-28.8-28.587-81.28 81.28L256 448c134.187 0 244.053-103.253 254.933-234.667h-32c-7.68 80.214-57.6 147.84-126.933 181.334M128 85.333c0 42.667 85.333 66.134 128 66.134S384 128 384 85.333V64H128v21.333M320 256c0-35.413-28.587-64-64-64s-64 28.587-64 64 28.587 64 64 64 64-28.587 64-64z"/><glyph glyph-name="account-details" unicode="" horiz-adv-x="512" d="M160 128c24.107 0 49.493-5.547 76.587-16.427 26.88-11.093 40.746-25.173 40.746-42.666V21.333H42.667v47.574c0 17.493 13.866 31.573 40.746 42.666C110.507 122.453 136.107 128 160 128m117.333 42.667h192V128h-192v42.667m0 85.333h192v-42.667h-192V256m0 85.333h192v-42.666h-192v42.666m-117.333-64c29.44 0 53.333-23.893 53.333-53.333S189.44 170.667 160 170.667 106.667 194.56 106.667 224 130.56 277.333 160 277.333z"/><glyph glyph-name="account-edit" unicode="" horiz-adv-x="512" d="M462.933 163.2L441.6 141.867 397.867 185.6l21.333 21.333c4.48 4.48 11.947 4.48 16.427 0l27.306-27.306c4.48-4.48 4.48-11.947 0-16.427M256 43.947l129.28 129.28 43.733-43.734L299.947 0H256v43.947m0 105.386c-94.293 0-170.667-38.186-170.667-85.333V21.333h128v40.32l85.334 85.334c-14.08 1.706-28.374 2.346-42.667 2.346m0 213.334c-47.147 0-85.333-38.187-85.333-85.334S208.853 192 256 192s85.333 38.187 85.333 85.333-38.186 85.334-85.333 85.334z"/><glyph glyph-name="account-group" unicode="" horiz-adv-x="512" d="M256 320c-35.413 0-64-28.587-64-64s28.587-64 64-64 64 28.587 64 64-28.587 64-64 64m-128-46.293c-29.44 0-53.333-23.894-53.333-53.334S98.56 167.04 128 167.04c18.773 0 35.2 9.813 44.587 24.32-14.294 18.133-23.254 40.107-23.254 64.64 0 4.267 0 8.533.854 12.8-6.827 3.2-14.294 4.907-22.187 4.907m256 0c-7.893 0-15.36-1.707-22.187-4.907.854-4.267.854-8.533.854-12.8 0-24.533-8.96-46.507-23.254-64.64 9.387-14.507 25.814-24.32 44.587-24.32 29.44 0 53.333 23.893 53.333 53.333S413.44 273.707 384 273.707M256 149.333c-42.667 0-128-21.333-128-64V42.667h256v42.666c0 42.667-85.333 64-128 64M99.627 128.64C64 122.453 21.333 105.813 21.333 78.293V42.667h64v42.666c0 16.64 6.187 31.36 14.294 43.307m312.746 0c8.107-11.947 14.294-26.667 14.294-43.307V42.667h64v35.626c0 27.52-42.667 44.16-78.294 50.347z"/><glyph glyph-name="account-group-outline" unicode="הּ" horiz-adv-x="512" d="M256 341.333c-41.173 0-74.667-33.493-74.667-74.666S214.827 192 256 192s74.667 33.493 74.667 74.667-33.494 74.666-74.667 74.666m0-42.666c17.707 0 32-14.294 32-32s-14.293-32-32-32-32 14.293-32 32 14.293 32 32 32m-138.667-21.334C87.893 277.333 64 253.44 64 224c0-20.053 11.307-37.333 27.52-46.507 7.68-4.266 16.427-6.826 25.813-6.826 9.387 0 18.134 2.56 25.814 6.826 7.893 4.48 14.506 10.88 19.413 18.56-15.573 20.267-23.893 45.014-23.893 70.614v5.973c-6.4 2.987-13.654 4.693-21.334 4.693m277.334 0c-7.68 0-14.934-1.706-21.334-4.693v-5.973c0-25.6-8.32-50.347-23.893-70.614 2.56-4.053 5.333-7.253 8.533-10.453 3.414-3.2 6.827-5.973 10.88-8.107 7.68-4.266 16.427-6.826 25.814-6.826 9.386 0 18.133 2.56 25.813 6.826C436.693 186.667 448 203.947 448 224c0 29.44-23.893 53.333-53.333 53.333M256 149.333c-49.92 0-149.333-24.96-149.333-74.666v-32h298.666v32c0 49.706-99.413 74.666-149.333 74.666M100.48 137.6C59.307 132.693 0 111.787 0 74.667v-32h64V83.84c0 21.547 14.72 39.467 36.48 53.76m311.04 0C433.28 123.307 448 105.387 448 83.84V42.667h64v32c0 37.12-59.307 58.026-100.48 62.933M256 106.667c32.64 0 69.12-10.667 90.24-21.334H165.76C186.88 96 223.36 106.667 256 106.667z"/><glyph glyph-name="account-heart" unicode="" horiz-adv-x="512" d="M320 149.333c-57.6 0-170.667-27.733-170.667-85.333V21.333h341.334V64c0 57.6-113.067 85.333-170.667 85.333M320 192c47.147 0 85.333 38.187 85.333 85.333S367.147 362.667 320 362.667s-85.333-38.187-85.333-85.334S272.853 192 320 192m-213.333-64l-12.8 10.667C51.2 179.2 21.333 204.8 21.333 236.8c0 25.6 21.334 46.933 46.934 46.933 14.933 0 29.866-6.4 38.4-17.066 8.533 10.666 23.466 17.066 38.4 17.066 25.6 0 46.933-19.2 46.933-46.933 0-32-29.867-57.6-72.533-98.133L106.667 128z"/><glyph glyph-name="account-heart-outline" unicode="﮿" horiz-adv-x="512" d="M106.667 128l-12.8 10.667C51.2 179.2 21.333 204.8 21.333 236.8c0 25.6 21.334 46.933 46.934 46.933 14.933 0 29.866-6.4 38.4-17.066 8.533 10.666 23.466 17.066 38.4 17.066 25.6 0 46.933-19.2 46.933-46.933 0-32-29.867-57.6-72.533-98.133L106.667 128M320 362.667c-47.147 0-85.333-38.187-85.333-85.334S272.853 192 320 192s85.333 38.187 85.333 85.333-38.186 85.334-85.333 85.334m0-130.134c-24.747 0-44.8 20.054-44.8 44.8 0 24.747 20.053 44.8 44.8 44.8 24.747 0 44.8-20.053 44.8-44.8 0-24.746-20.053-44.8-44.8-44.8m0-61.866c-56.96 0-170.667-28.374-170.667-85.334v-64h341.334v64c0 56.96-113.707 85.334-170.667 85.334m130.133-108.8H189.867v23.466c0 13.654 66.133 44.8 130.133 44.8 63.36 0 130.133-31.146 130.133-44.8V61.867z"/><glyph glyph-name="account-key" unicode="" horiz-adv-x="512" d="M234.667 234.667V192h-21.334v-42.667h-42.666V192h-46.294A63.792 63.792 0 0064 149.333c-35.413 0-64 28.587-64 64s28.587 64 64 64a63.792 63.792 0 0060.373-42.666h110.294m-170.667 0c-11.733 0-21.333-9.6-21.333-21.334S52.267 192 64 192s21.333 9.6 21.333 21.333-9.6 21.334-21.333 21.334m277.333-85.334C398.293 149.333 512 120.747 512 64V21.333H170.667V64c0 56.747 113.706 85.333 170.666 85.333m0 42.667C294.187 192 256 230.187 256 277.333s38.187 85.334 85.333 85.334 85.334-38.187 85.334-85.334S388.48 192 341.333 192z"/><glyph glyph-name="account-key-outline" unicode="﯀" horiz-adv-x="512" d="M124.373 234.667A63.792 63.792 0 0164 277.333c-35.413 0-64-28.586-64-64s28.587-64 64-64A63.792 63.792 0 01124.373 192h46.294v-42.667h42.666V192h21.334v42.667H124.373M64 192c-11.733 0-21.333 9.6-21.333 21.333s9.6 21.334 21.333 21.334 21.333-9.6 21.333-21.334S75.733 192 64 192m277.333 170.667c-47.146 0-85.333-38.187-85.333-85.334S294.187 192 341.333 192s85.334 38.187 85.334 85.333-38.187 85.334-85.334 85.334m0-130.134c-24.746 0-44.8 20.054-44.8 44.8 0 24.747 20.054 44.8 44.8 44.8 24.747 0 44.8-20.053 44.8-44.8 0-24.746-20.053-44.8-44.8-44.8m0-61.866c-56.96 0-170.666-28.374-170.666-85.334v-64H512v64c0 56.96-113.707 85.334-170.667 85.334m130.134-108.8H211.2v23.466c0 13.654 66.133 44.8 130.133 44.8 63.36 0 130.134-31.146 130.134-44.8V61.867z"/><glyph glyph-name="account-minus" unicode="" horiz-adv-x="512" d="M320 149.333c-56.96 0-170.667-28.373-170.667-85.333V21.333h341.334V64c0 56.96-113.707 85.333-170.667 85.333M21.333 234.667V192H192v42.667M320 192c47.147 0 85.333 38.187 85.333 85.333S367.147 362.667 320 362.667s-85.333-38.187-85.333-85.334S272.853 192 320 192z"/><glyph glyph-name="account-minus-outline" unicode="﫫" horiz-adv-x="512" d="M320 362.667c-47.147 0-85.333-38.187-85.333-85.334S272.853 192 320 192s85.333 38.187 85.333 85.333-38.186 85.334-85.333 85.334m0-40.534c24.747 0 44.8-20.053 44.8-44.8 0-24.746-20.053-44.8-44.8-44.8-24.747 0-44.8 20.054-44.8 44.8 0 24.747 20.053 44.8 44.8 44.8M21.333 234.667V192H192v42.667H21.333m298.667-64c-56.96 0-170.667-28.374-170.667-85.334v-64h341.334v64c0 56.96-113.707 85.334-170.667 85.334m0-40.534c63.36 0 130.133-31.146 130.133-44.8V61.867H189.867v23.466c0 13.654 66.133 44.8 130.133 44.8z"/><glyph glyph-name="account-multiple" unicode="" horiz-adv-x="512" d="M341.333 170.667c-6.186 0-13.226 0-20.693-1.067 24.747-17.92 42.027-41.6 42.027-73.6V42.667h128V96c0 49.707-99.627 74.667-149.334 74.667m-170.666 0c-49.707 0-149.334-24.96-149.334-74.667V42.667H320V96c0 49.707-99.627 74.667-149.333 74.667m0 42.666c35.413 0 64 28.587 64 64s-28.587 64-64 64-64-28.586-64-64 28.586-64 64-64m170.666 0c35.414 0 64 28.587 64 64s-28.586 64-64 64-64-28.586-64-64 28.587-64 64-64z"/><glyph glyph-name="account-multiple-check" unicode="" horiz-adv-x="512" d="M481.92 279.04l24.747-30.08-101.334-101.333-58.666 64 24.746 24.746 33.92-33.706 76.587 76.373M128 341.333c35.413 0 64-28.586 64-64s-28.587-64-64-64-64 28.587-64 64 28.587 64 64 64m106.667 0c35.413 0 64-28.586 64-64s-28.587-64-64-64c-6.827 0-13.44 1.067-19.627 3.2 12.16 17.28 19.627 38.187 19.627 60.8s-7.467 43.734-19.627 61.014a66.234 66.234 0 0019.627 2.986M128 170.667c42.667 0 128-21.334 128-64V64H0v42.667c0 42.666 85.333 64 128 64m141.227-3.414c42.88-7.253 93.44-27.733 93.44-60.586V64h-64v42.667c0 25.173-11.734 45.226-29.44 60.586z"/><glyph glyph-name="account-multiple-minus" unicode="" horiz-adv-x="512" d="M277.333 170.667c-42.666 0-128-21.334-128-64V64h256v42.667c0 42.666-85.333 64-128 64m141.227-3.414c17.707-15.36 29.44-35.413 29.44-60.586V64h64v42.667c0 32.853-50.56 53.333-93.44 60.586m-141.227 46.08c35.414 0 64 28.587 64 64s-28.586 64-64 64-64-28.586-64-64 28.587-64 64-64m106.667 0c35.413 0 64 28.587 64 64s-28.587 64-64 64a66.234 66.234 0 01-19.627-2.986c12.16-17.28 19.627-38.4 19.627-61.014 0-22.613-7.467-43.52-19.627-60.8 6.187-2.133 12.8-3.2 19.627-3.2m-213.333 21.334H0V192h170.667v42.667z"/><glyph glyph-name="account-multiple-minus-outline" unicode="﯁" horiz-adv-x="512" d="M277.333 170.667c42.667 0 128-21.334 128-64V64h-256v42.667c0 42.666 85.334 64 128 64m141.227-3.414C461.44 160 512 139.52 512 106.667V64h-64v42.667c0 25.173-11.733 45.226-29.44 60.586m-141.227 46.08c-35.413 0-64 28.587-64 64s28.587 64 64 64 64-28.586 64-64-28.586-64-64-64m106.667 0c-6.827 0-13.44 1.067-19.627 3.2 12.16 17.28 19.627 38.187 19.627 60.8s-7.467 43.734-19.627 61.014A66.234 66.234 0 00384 341.333c35.413 0 64-28.586 64-64s-28.587-64-64-64m-213.333 21.334V192H0v42.667h170.667m106.666 74.666c-17.706 0-32-14.293-32-32s14.294-32 32-32 32 14.294 32 32-14.293 32-32 32M181.333 96h192v10.667c0 17.706-42.666 32-96 32s-96-14.294-96-32V96z"/><glyph glyph-name="account-multiple-outline" unicode="" horiz-adv-x="512" d="M192 362.667c47.147 0 85.333-38.187 85.333-85.334S239.147 192 192 192s-85.333 38.187-85.333 85.333 38.186 85.334 85.333 85.334M192 320c-23.467 0-42.667-19.2-42.667-42.667s19.2-42.666 42.667-42.666 42.667 19.2 42.667 42.666S215.467 320 192 320m0-149.333c56.96 0 170.667-28.587 170.667-85.334v-64H21.333v64c0 56.747 113.707 85.334 170.667 85.334m0-40.534c-63.36 0-130.133-31.146-130.133-44.8V61.867h260.266v23.466c0 13.654-66.773 44.8-130.133 44.8m128 232.534c47.147 0 85.333-38.187 85.333-85.334S367.147 192 320 192c-10.027 0-19.627 1.707-28.373 4.907C309.333 218.88 320 246.827 320 277.333c0 30.507-10.667 58.454-28.373 80.427 8.746 3.2 18.346 4.907 28.373 4.907M490.667 85.333v-64h-85.334V96c0 26.667-16.213 51.2-43.306 70.827 57.813-9.387 128.64-36.694 128.64-81.494z"/><glyph glyph-name="account-multiple-plus" unicode="" horiz-adv-x="512" d="M277.333 170.667c-42.666 0-128-21.334-128-64V64h256v42.667c0 42.666-85.333 64-128 64m141.227-3.414c17.707-15.36 29.44-35.413 29.44-60.586V64h64v42.667c0 32.853-50.56 53.333-93.44 60.586m-141.227 46.08c35.414 0 64 28.587 64 64s-28.586 64-64 64-64-28.586-64-64 28.587-64 64-64m106.667 0c35.413 0 64 28.587 64 64s-28.587 64-64 64a66.234 66.234 0 01-19.627-2.986c12.16-17.28 19.627-38.4 19.627-61.014 0-22.613-7.467-43.52-19.627-60.8 6.187-2.133 12.8-3.2 19.627-3.2m-213.333 21.334h-64v64H64v-64H0V192h64v-64h42.667v64h64v42.667z"/><glyph glyph-name="account-multiple-plus-outline" unicode="" horiz-adv-x="512" d="M277.333 149.333c42.667 0 128-21.333 128-64V42.667h-256v42.666c0 42.667 85.334 64 128 64m141.227-3.413c42.88-7.253 93.44-27.733 93.44-60.587V42.667h-64v42.666c0 25.174-11.733 45.014-29.44 60.587M277.333 192c-35.413 0-64 28.587-64 64s28.587 64 64 64 64-28.587 64-64-28.586-64-64-64M384 192c-6.827 0-13.44 1.067-19.413 2.987C376.533 212.267 384 233.387 384 256s-7.467 43.52-19.413 61.013C370.56 318.933 377.173 320 384 320c35.413 0 64-28.587 64-64s-28.587-64-64-64m-213.333 21.333v-42.666h-64v-64H64v64H0v42.666h64v64h42.667v-64h64M277.333 288c-17.706 0-32-14.293-32-32s14.294-32 32-32 32 14.293 32 32-14.293 32-32 32m-96-213.333h192v10.666c0 17.707-42.666 32-96 32s-96-14.293-96-32V74.667z"/><glyph glyph-name="account-network" unicode="" horiz-adv-x="512" d="M277.333 85.333V42.667h21.334c11.733 0 21.333-9.6 21.333-21.334h149.333v-42.666H320c0-11.734-9.6-21.334-21.333-21.334h-85.334c-11.733 0-21.333 9.6-21.333 21.334H42.667v42.666H192c0 11.734 9.6 21.334 21.333 21.334h21.334v42.666h-128v32C106.667 158.507 173.44 192 256 192s149.333-33.493 149.333-74.667v-32h-128M256 384c41.173 0 74.667-33.493 74.667-74.667S297.173 234.667 256 234.667s-74.667 33.493-74.667 74.666S214.827 384 256 384z"/><glyph glyph-name="account-network-outline" unicode="﯂" horiz-adv-x="512" d="M256 234.667c41.173 0 74.667 33.493 74.667 74.666S297.173 384 256 384s-74.667-33.493-74.667-74.667 33.494-74.666 74.667-74.666m0 106.666c17.707 0 32-14.293 32-32s-14.293-32-32-32-32 14.294-32 32 14.293 32 32 32m64-320c0 11.734-9.6 21.334-21.333 21.334h-21.334v42.666h128v32C405.333 158.507 338.56 192 256 192s-149.333-33.493-149.333-74.667v-32h128V42.667h-21.334c-11.733 0-21.333-9.6-21.333-21.334H42.667v-42.666H192c0-11.734 9.6-21.334 21.333-21.334h85.334c11.733 0 21.333 9.6 21.333 21.334h149.333v42.666H320M162.347 128c16.64 10.027 48.64 21.333 93.653 21.333s77.013-11.306 93.653-21.333H162.347z"/><glyph glyph-name="account-off" unicode="" horiz-adv-x="512" d="M256 362.667c47.147 0 85.333-38.187 85.333-85.334 0-41.6-29.866-76.373-69.333-83.84l-99.84 99.84c7.467 39.467 42.24 69.334 83.84 69.334m5.973-213.334l128-128 36.694-36.693-27.094-27.307-64 64H85.333V64c0 39.253 53.334 72.32 125.227 82.347L59.307 297.6 86.4 324.693l175.573-175.36M426.667 64V38.827l-103.68 103.68C384 129.493 426.667 99.2 426.667 64z"/><glyph glyph-name="account-off-outline" unicode="﯃" horiz-adv-x="512" d="M58.667 298.667l27.306 26.666L282.88 128 426.667-15.36l-27.094-27.307-64 64H85.333v64c0 39.68 55.68 65.707 108.587 77.654L58.667 298.667m368-213.334V38.827L386.133 79.36v5.973c0 5.547-10.666 13.867-27.733 21.334l-59.733 60.16c57.813-9.6 128-36.907 128-81.494m-300.8 0V61.867H295.04L228.693 128c-53.973-6.4-102.826-30.933-102.826-42.667M256 362.667c47.147 0 85.333-38.187 85.333-85.334 0-41.6-29.866-76.373-69.333-83.84l-99.84 99.84c7.467 39.467 42.24 69.334 83.84 69.334M256 320c-23.467 0-42.667-19.2-42.667-42.667s19.2-42.666 42.667-42.666 42.667 19.2 42.667 42.666S279.467 320 256 320z"/><glyph glyph-name="account-outline" unicode="" horiz-adv-x="512" d="M256 362.667c47.147 0 85.333-38.187 85.333-85.334S303.147 192 256 192s-85.333 38.187-85.333 85.333 38.186 85.334 85.333 85.334M256 320c-23.467 0-42.667-19.2-42.667-42.667s19.2-42.666 42.667-42.666 42.667 19.2 42.667 42.666S279.467 320 256 320m0-149.333c56.96 0 170.667-28.374 170.667-85.334v-64H85.333v64c0 56.96 113.707 85.334 170.667 85.334m0-40.534c-63.36 0-130.133-31.146-130.133-44.8V61.867h260.266v23.466c0 13.654-66.773 44.8-130.133 44.8z"/><glyph glyph-name="account-plus" unicode="" horiz-adv-x="512" d="M320 149.333c-56.96 0-170.667-28.373-170.667-85.333V21.333h341.334V64c0 56.96-113.707 85.333-170.667 85.333m-192 85.334v64H85.333v-64h-64V192h64v-64H128v64h64v42.667M320 192c47.147 0 85.333 38.187 85.333 85.333S367.147 362.667 320 362.667s-85.333-38.187-85.333-85.334S272.853 192 320 192z"/><glyph glyph-name="account-plus-outline" unicode="" horiz-adv-x="512" d="M320 362.667c-47.147 0-85.333-38.187-85.333-85.334S272.853 192 320 192s85.333 38.187 85.333 85.333-38.186 85.334-85.333 85.334m0-40.534c24.747 0 44.8-20.053 44.8-44.8 0-24.746-20.053-44.8-44.8-44.8-24.747 0-44.8 20.054-44.8 44.8 0 24.747 20.053 44.8 44.8 44.8M85.333 298.667v-64h-64V192h64v-64H128v64h64v42.667h-64v64H85.333m234.667-128c-56.96 0-170.667-28.374-170.667-85.334v-64h341.334v64c0 56.96-113.707 85.334-170.667 85.334m0-40.534c63.36 0 130.133-31.146 130.133-44.8V61.867H189.867v23.466c0 13.654 66.133 44.8 130.133 44.8z"/><glyph glyph-name="account-question" unicode="וּ" horiz-adv-x="512" d="M277.333 277.333C277.333 230.187 239.147 192 192 192s-85.333 38.187-85.333 85.333 38.186 85.334 85.333 85.334 85.333-38.187 85.333-85.334M362.667 64V21.333H21.333V64c0 47.147 76.374 85.333 170.667 85.333S362.667 111.147 362.667 64m74.666 74.667v-32h-32v32h32m-42.666 106.666h-32V256c0 35.413 28.586 64 64 64s64-28.587 64-64c0-20.693-10.667-40.107-27.52-51.413l-6.4-4.054c-12.16-8.533-19.414-21.546-19.414-36.266V160h-32v4.267c0 25.386 12.8 49.066 33.92 62.933l6.187 4.053c8.32 5.547 13.227 14.72 13.227 24.747 0 17.707-14.294 32-32 32s-32-14.293-32-32v-10.667z"/><glyph glyph-name="account-question-outline" unicode="זּ" horiz-adv-x="512" d="M437.333 138.667v-32h-32v32h32m-42.666 106.666h-32V256c0 35.413 28.586 64 64 64s64-28.587 64-64c0-20.693-10.667-40.107-27.52-51.413l-6.4-4.054c-12.16-8.533-19.414-21.546-19.414-36.266V160h-32v4.267c0 25.386 12.8 49.066 33.92 62.933l6.187 4.053c8.32 5.547 13.227 14.72 13.227 24.747 0 17.707-14.294 32-32 32s-32-14.293-32-32v-10.667M192 170.667c56.96 0 170.667-28.587 170.667-85.334v-64H21.333v64c0 56.747 113.707 85.334 170.667 85.334m0 192c47.147 0 85.333-38.187 85.333-85.334S239.147 192 192 192s-85.333 38.187-85.333 85.333 38.186 85.334 85.333 85.334m0-232.534c-63.36 0-130.133-31.146-130.133-44.8V61.867h260.266v23.466c0 13.654-66.773 44.8-130.133 44.8m0 192c-24.747 0-44.8-20.053-44.8-44.8 0-24.746 20.053-44.8 44.8-44.8 24.747 0 44.8 20.054 44.8 44.8 0 24.747-20.053 44.8-44.8 44.8z"/><glyph glyph-name="account-remove" unicode="" horiz-adv-x="512" d="M320 149.333c56.96 0 170.667-28.373 170.667-85.333V21.333H149.333V64c0 56.96 113.707 85.333 170.667 85.333M320 192c-47.147 0-85.333 38.187-85.333 85.333s38.186 85.334 85.333 85.334 85.333-38.187 85.333-85.334S367.147 192 320 192m-213.333 51.413l45.226 45.44 30.294-30.293-45.44-45.227 45.44-45.226-30.294-30.294-45.226 45.44-45.227-45.44-30.293 30.294 45.44 45.226-45.44 45.227 30.293 30.293 45.227-45.44z"/><glyph glyph-name="account-remove-outline" unicode="﫬" horiz-adv-x="512" d="M31.147 258.56l30.293 30.293 45.227-45.44 45.226 45.44 30.294-30.293-45.44-45.227 45.44-45.226-30.294-30.294-45.226 45.44-45.227-45.44-30.293 30.294 45.44 45.226-45.44 45.227M320 362.667c47.147 0 85.333-38.187 85.333-85.334S367.147 192 320 192s-85.333 38.187-85.333 85.333 38.186 85.334 85.333 85.334m0-40.534c-24.747 0-44.8-20.053-44.8-44.8 0-24.746 20.053-44.8 44.8-44.8 24.747 0 44.8 20.054 44.8 44.8 0 24.747-20.053 44.8-44.8 44.8m0-151.466c56.96 0 170.667-28.374 170.667-85.334v-64H149.333v64c0 56.96 113.707 85.334 170.667 85.334m0-40.534c-64 0-130.133-31.146-130.133-44.8V61.867h260.266v23.466c0 13.654-66.773 44.8-130.133 44.8z"/><glyph glyph-name="account-search" unicode="" horiz-adv-x="512" d="M330.667 192c53.333 0 96-42.667 96-96 0-18.773-5.334-36.48-14.72-51.2l65.706-66.133L448-50.987l-66.56 65.494A95.946 95.946 0 00330.667 0c-53.334 0-96 42.667-96 96s42.666 96 96 96m0-42.667c-29.44 0-53.334-23.893-53.334-53.333s23.894-53.333 53.334-53.333S384 66.56 384 96s-23.893 53.333-53.333 53.333M213.333 362.667c47.147 0 85.334-38.187 85.334-85.334 0-19.413-6.614-37.333-17.494-51.84-18.346-6.826-34.773-17.706-48.426-31.36L213.333 192C166.187 192 128 230.187 128 277.333s38.187 85.334 85.333 85.334M42.667 21.333V64c0 45.227 70.613 82.347 160 85.333C195.84 132.693 192 114.773 192 96c0-27.52 8.107-53.333 21.333-74.667H42.667z"/><glyph glyph-name="account-search-outline" unicode="老" horiz-adv-x="512" d="M213.333 170.667c-7.466-12.587-13.653-26.454-17.28-41.174C138.667 124.587 83.2 97.707 83.2 85.333V61.867h113.067c3.626-14.507 9.6-28.16 17.066-40.534H42.667v64c0 56.747 113.706 85.334 170.666 85.334m0 192c47.147 0 85.334-38.187 85.334-85.334 0-19.413-6.614-37.333-17.494-51.84-18.346-6.826-34.773-17.706-48.426-31.36L213.333 192C166.187 192 128 230.187 128 277.333s38.187 85.334 85.333 85.334m0-40.534c-24.746 0-44.8-20.053-44.8-44.8 0-24.746 20.054-44.8 44.8-44.8 24.747 0 44.8 20.054 44.8 44.8 0 24.747-20.053 44.8-44.8 44.8M330.667 192c53.333 0 96-42.667 96-96 0-18.773-5.334-36.48-14.72-51.2l65.706-66.133L448-50.987l-66.56 65.494A95.946 95.946 0 00330.667 0c-53.334 0-96 42.667-96 96s42.666 96 96 96m0-42.667c-29.44 0-53.334-23.893-53.334-53.333s23.894-53.333 53.334-53.333S384 66.56 384 96s-23.893 53.333-53.333 53.333z"/><glyph glyph-name="account-settings" unicode="" horiz-adv-x="512" d="M256 362.667c47.147 0 85.333-38.187 85.333-85.334S303.147 192 256 192s-85.333 38.187-85.333 85.333 38.186 85.334 85.333 85.334m0-213.334c94.293 0 170.667-38.186 170.667-85.333V21.333H85.333V64c0 47.147 76.374 85.333 170.667 85.333M149.333-21.333H192V-64h-42.667v42.667m85.334 0h42.666V-64h-42.666v42.667m85.333 0h42.667V-64H320v42.667z"/><glyph glyph-name="account-star" unicode="" horiz-adv-x="512" d="M320 149.333c-56.96 0-170.667-28.373-170.667-85.333V21.333h341.334V64c0 56.96-113.707 85.333-170.667 85.333M320 192c47.147 0 85.333 38.187 85.333 85.333S367.147 362.667 320 362.667s-85.333-38.187-85.333-85.334S272.853 192 320 192m-213.333-27.307l52.266-31.786-13.866 59.946L192 232.96l-61.653 5.333-23.68 56.32-24.107-56.32-61.227-5.333 46.507-40.107-14.507-59.946 53.334 31.786z"/><glyph glyph-name="account-star-outline" unicode="﯄" horiz-adv-x="512" d="M320 362.667c47.147 0 85.333-38.187 85.333-85.334S367.147 192 320 192s-85.333 38.187-85.333 85.333 38.186 85.334 85.333 85.334m0-40.534c-24.747 0-44.8-20.053-44.8-44.8 0-24.746 20.053-44.8 44.8-44.8 24.747 0 44.8 20.054 44.8 44.8 0 24.747-20.053 44.8-44.8 44.8m0-151.466c56.96 0 170.667-28.374 170.667-85.334v-64H149.333v64c0 56.96 113.707 85.334 170.667 85.334m0-40.534c-64 0-130.133-31.146-130.133-44.8V61.867h260.266v23.466c0 13.654-66.773 44.8-130.133 44.8m-213.333 34.56l-53.334-31.786 14.507 59.946-46.507 40.107 61.227 5.333 24.107 56.32 23.68-56.32L192 232.96l-46.933-40.107 13.866-59.946-52.266 31.786z"/><glyph glyph-name="account-supervisor" unicode="慠" horiz-adv-x="512" d="M352 192c29.44 0 53.333 23.893 53.333 53.333S381.44 298.667 352 298.667s-53.333-23.894-53.333-53.334S322.56 192 352 192m-160 21.333c35.413 0 64 28.587 64 64s-28.587 64-64 64-64-28.586-64-64 28.587-64 64-64m160-64c-39.04 0-117.333-19.626-117.333-58.666v-48h234.666v48c0 39.04-78.293 58.666-117.333 58.666m-160 21.334c-49.707 0-149.333-24.96-149.333-74.667V42.667H192v48c0 18.133 7.04 49.92 50.56 74.026-18.56 3.84-36.48 5.974-50.56 5.974z"/><glyph glyph-name="account-supervisor-circle" unicode="懲" horiz-adv-x="512" d="M256 405.333c-117.973 0-213.333-96-213.333-213.333C42.667 74.24 138.24-21.333 256-21.333S469.333 74.24 469.333 192 373.76 405.333 256 405.333m76.8-135.253a41.062 41.062 0 0041.173-41.173 41.062 41.062 0 00-41.173-41.174 41.062 41.062 0 00-41.173 41.174c-.214 22.826 18.346 41.173 41.173 41.173m-128 33.707c27.733 0 50.347-22.614 50.347-50.347s-22.614-50.773-50.347-50.773-50.347 23.04-50.347 50.773a50.167 50.167 0 0050.347 50.347m0-194.774v-80c-51.2 16-91.733 55.467-109.653 105.814 22.186 23.893 78.293 35.84 109.653 35.84 11.307 0 25.6-1.494 40.533-4.48-34.986-18.56-40.533-43.094-40.533-57.174m51.2-87.68c-5.973 0-11.52 0-17.067.854v86.826c0 30.294 62.72 45.44 93.867 45.44 22.827 0 61.867-8.32 81.92-24.533C389.76 66.56 328.107 21.333 256 21.333z"/><glyph glyph-name="account-switch" unicode="" horiz-adv-x="512" d="M341.333 256c49.707 0 149.334-24.96 149.334-74.667V128h-128v53.333c0 32-17.28 55.68-41.814 73.6l20.48 1.067m-170.666 0C220.373 256 320 231.04 320 181.333V128H21.333v53.333C21.333 231.04 120.96 256 170.667 256m0 42.667c-35.414 0-64 28.586-64 64s28.586 64 64 64 64-28.587 64-64-28.587-64-64-64m170.666 0c-35.413 0-64 28.586-64 64s28.587 64 64 64 64-28.587 64-64-28.586-64-64-64M192 90.667v-48h128v48l69.333-69.334L320-48V0H192v-48l-69.333 69.333L192 90.667z"/><glyph glyph-name="account-tie" unicode="ﲿ" horiz-adv-x="512" d="M256 384c47.147 0 85.333-38.187 85.333-85.333S303.147 213.333 256 213.333s-85.333 38.187-85.333 85.334S208.853 384 256 384m85.333-224.853c0-22.614-5.973-75.307-46.72-134.187L277.333 128l20.054 40.107c-13.227 1.493-27.094 2.56-41.387 2.56s-28.16-1.067-41.387-2.56L234.667 128l-17.28-103.04c-40.747 58.88-46.72 111.573-46.72 134.187-50.987-14.934-85.334-41.814-85.334-73.814V0h341.334v85.333c0 32-34.134 58.88-85.334 73.814z"/><glyph glyph-name="accusoft" unicode="" horiz-adv-x="512" d="M373.333 114.987c-3.626 5.12-170.026 217.813-175.573 224.64-5.76 7.04-4.053 9.173-2.987 10.453 1.92 1.92 4.907 1.92 17.067 1.92 7.04 0 78.08 0 85.547.64 15.36 0 17.92-1.28 19.413-1.92 1.707-.427 5.973-4.053 8.747-7.68 1.493-1.707 150.613-180.053 152.106-181.973 1.494-1.92 4.267-5.12 5.974-8.32 1.92-3.414 2.133-7.254-.64-8.747-1.707-1.067-84.054-34.987-86.4-35.84-1.92-1.493-6.827-2.773-10.24-2.347-2.347.854-7.254 2.56-13.014 9.174m84.694 4.053l5.973-1.067s19.84-3.84 21.76-4.266c2.133-.427 4.053-1.92 3.84-2.56-.213-1.707-1.067-2.56-2.56-3.414-1.28-1.066-90.667-56.106-92.373-56.96-1.494-.853-3.627-2.133-8.32-2.773-8.747-1.707-25.6 2.987-30.934 4.053C350.08 53.333 131.2 101.76 129.28 102.4c-1.92.64-3.2.853-3.413 2.56-.214 2.987 4.48 4.267 8.106 5.76 3.84 1.28 106.667 38.613 110.294 40.107 3.626 1.493 8.32 1.92 10.666 2.133 2.347.213 16.64-2.133 23.04-2.987 6.614-.64 24.96-3.84 24.96-3.84l41.814-54.4C352 83.413 356.693 80 362.667 79.36c3.2-.213 6.613.64 8.96 1.707 1.706.853 86.4 37.973 86.4 37.973m-239.36 133.12l36.48-46.72.853-1.707v-1.066c-.853-.854-65.493-60.16-65.92-60.8l-68.053-24.534s-1.92-1.066-2.987-1.706c-1.067-.64-2.347-1.92-1.707-5.12V89.813L33.28 63.147c-4.053-1.28-11.947-4.054-13.013-3.2-1.494 1.066.426 3.413 1.066 4.693 1.28 1.28 172.374 170.027 178.987 176.427 9.6 9.813 18.347 11.093 18.347 11.093"/><glyph glyph-name="adchoices" unicode="ﴞ" horiz-adv-x="512" d="M192 256c11.733 0 21.333-9.6 21.333-21.333s-9.6-21.334-21.333-21.334-21.333 9.6-21.333 21.334S180.267 256 192 256m-85.333 149.333c42.666-21.333 320-176 320-176s31.146-17.28 26.666-42.666C449.92 166.827 416 149.333 416 149.333L224 42.667S170.667 21.333 170.667 64v106.667S170.667 192 192 192s21.333-21.333 21.333-21.333V96L352 170.667s17.28 7.466 17.28 18.133-27.947 24.533-27.947 24.533L128 341.333S96 362.667 96 320V64s.64-30.293 20.48-20.053c28.373 14.72 35.2 10.88 42.24-3.414 11.093-22.826-10.24-34.346-10.24-34.346L85.333-26.667S42.667-42.667 42.667 0v362.667c0 64 64 42.666 64 42.666z"/><glyph glyph-name="adjust" unicode="" horiz-adv-x="512" d="M256 405.333C138.24 405.333 42.667 309.76 42.667 192S138.24-21.333 256-21.333 469.333 74.24 469.333 192 373.76 405.333 256 405.333m0-384C161.92 21.333 85.333 97.92 85.333 192S161.92 362.667 256 362.667 426.667 286.08 426.667 192 350.08 21.333 256 21.333M320 192c0-35.413-28.587-64-64-64s-64 28.587-64 64 28.587 64 64 64 64-28.587 64-64z"/><glyph glyph-name="adobe" unicode="蘆" horiz-adv-x="512" d="M311.04 384h158.293V28.373L311.04 384m-110.08 0H42.667V28.373L200.96 384M256 252.373l99.627-224H288l-28.373 71.254h-72.96L256 252.373z"/><glyph glyph-name="air-conditioner" unicode="" horiz-adv-x="512" d="M140.587 433.92c49.92 38.613 104.106-8.533 116.266-81.92 9.174 0 18.134-2.56 26.24-7.253 11.094 12.8 20.907 30.293 17.067 49.92-8.96 45.866 42.453 82.986 91.307 19.626 38.613-49.92-8.534-104.106-82.134-116.266 0-9.174-2.346-18.347-7.253-26.454 12.8-10.88 30.293-20.693 49.92-16.853 45.44 8.96 82.773-42.24 19.413-91.307-49.92-38.613-104.106 8.534-116.266 81.92-9.174 0-18.134 2.774-26.027 7.467-11.093-12.8-21.12-30.507-17.28-50.133 8.96-45.654-42.453-82.987-91.307-19.627-38.826 50.133 8.534 104.32 82.134 116.267 0 9.173 2.773 18.133 7.466 26.24-12.8 10.88-30.293 20.906-50.133 17.066-45.44-8.96-82.773 42.24-19.413 91.307m-33.92-327.253h42.666C172.8 106.667 192 87.467 192 64V-64h-42.667v42.667h-42.666V-64H64V64c0 23.467 19.2 42.667 42.667 42.667m0-42.667V21.333h42.666V64h-42.666m169.173 42.667H320L257.493-64h-44.16l62.507 170.667m108.16 0h64V64h-64v-85.333h64V-64h-64c-23.467 0-42.667 19.2-42.667 42.667V64c0 23.467 19.2 42.667 42.667 42.667z"/><glyph glyph-name="air-filter" unicode="ﴟ" horiz-adv-x="512" d="M405.333 57.387V21.333c0-23.466-19.2-42.666-42.666-42.666H149.333c-23.466 0-42.666 19.2-42.666 42.666v78.934c-9.814 3.84-22.4 6.4-42.667 6.4-11.733 0-21.333 9.6-21.333 21.333s9.6 21.333 21.333 21.333c17.493 0 31.36-1.706 42.667-4.48V185.6c-9.814 3.84-22.4 6.4-42.667 6.4-11.733 0-21.333 9.6-21.333 21.333s9.6 21.334 21.333 21.334c17.493 0 31.36-1.707 42.667-4.48v40.746c-9.814 3.84-22.4 6.4-42.667 6.4-11.733 0-21.333 9.6-21.333 21.334S52.267 320 64 320c17.493 0 31.36-1.707 42.667-4.48v47.147c0 23.466 19.2 42.666 42.666 42.666h213.334c23.466 0 42.666-19.2 42.666-42.666v-46.08c37.974-6.614 54.187-20.694 57.814-24.107 8.32-8.32 8.32-21.973 0-30.293s-19.414-8.107-30.294 0c0 0-22.186 15.146-70.186 15.146-26.88 0-44.587-8.746-65.067-19.2-22.187-10.88-47.147-23.466-84.267-23.466-7.68 0-14.72 0-21.333.853v42.88c6.4-1.067 13.44-1.067 21.333-1.067 26.88 0 44.587 8.747 65.067 18.987 22.187 11.093 47.36 23.68 84.267 23.68v42.667H149.333V21.333h213.334V64c32 0 42.026-6.187 42.666-6.613m-42.666 177.28c-36.907 0-62.08-12.587-84.267-23.68C257.92 200.747 240.213 192 213.333 192c-7.893 0-14.933 0-21.333 1.067v-42.88c6.613-.854 13.653-.854 21.333-.854 37.12 0 62.08 12.587 84.267 23.467 20.48 10.24 38.187 19.2 65.067 19.2 48 0 70.186-15.147 70.186-15.147 10.88-8.32 21.974-8.32 30.294 0s8.32 21.76 0 30.294c-4.48 4.48-31.147 27.52-100.48 27.52m0-85.334c-36.907 0-62.08-12.586-84.267-23.68-20.48-10.24-38.187-18.986-65.067-18.986-7.893 0-14.933 0-21.333 1.066v-42.88C198.613 64 205.653 64 213.333 64c37.12 0 62.08 12.587 84.267 23.467 20.48 10.24 38.187 19.2 65.067 19.2 48 0 70.186-15.147 70.186-15.147 10.88-8.32 21.974-8.32 30.294 0s8.32 21.76 0 30.293c-4.48 4.48-31.147 27.52-100.48 27.52z"/><glyph glyph-name="air-horn" unicode="ﶈ" horiz-adv-x="512" d="M405.333 388.267V251.733c0-6.4-6.4-12.8-12.8-10.666 0 0-83.2 55.466-179.2 55.466v-51.2h4.267c10.667 0 21.333-4.266 25.6-12.8l27.733-38.4c4.267-4.266 6.4-10.666 6.4-14.933V8.533c0-14.933-14.933-29.866-32-29.866H138.667c-17.067 0-32 12.8-32 29.866V179.2c0 6.4 2.133 10.667 6.4 14.933l27.733 38.4c6.4 8.534 14.933 12.8 25.6 12.8h4.267v32c-8.534-10.666-21.334-17.066-34.134-17.066-27.733 0-51.2 27.733-51.2 59.733 0 32 23.467 59.733 51.2 59.733 12.8-2.133 25.6-8.533 34.134-17.066v29.866h42.666v-51.2c96 0 179.2 55.467 179.2 55.467 6.4 2.133 12.8-2.133 12.8-8.533z"/><glyph glyph-name="air-purifier" unicode="ﴠ" horiz-adv-x="512" d="M234.667 256C281.813 256 320 217.813 320 170.667s-38.187-85.334-85.333-85.334-85.334 38.187-85.334 85.334S187.52 256 234.667 256m0-42.667c-23.467 0-42.667-19.2-42.667-42.666S211.2 128 234.667 128s42.666 19.2 42.666 42.667-19.2 42.666-42.666 42.666m-85.334 149.334h149.334c47.146 0 85.333-38.187 85.333-85.334V256h-42.667v21.333c0 23.467-19.2 42.667-42.666 42.667H149.333c-23.466 0-42.666-19.2-42.666-42.667v-256h234.666V64H384v-85.333H64v298.666c0 47.147 38.187 85.334 85.333 85.334m192-149.334C394.667 213.333 394.667 256 448 256v-42.667c-53.333 0-53.333-42.666-106.667-42.666v42.666m0-85.333c53.334 0 53.334 42.667 106.667 42.667V128c-53.333 0-53.333-42.667-106.667-42.667V128z"/><glyph glyph-name="airbag" unicode="﯅" horiz-adv-x="512" d="M298.667 277.333c0-58.88-47.787-106.666-106.667-106.666S85.333 218.453 85.333 277.333 133.12 384 192 384s106.667-47.787 106.667-106.667m-75.52-161.066l54.186-52.907-42.666-.427L160-12.373l-32 31.786 95.147 96.854m139.52 289.066c23.04 0 42.666-18.773 42.666-42.666 0-23.04-18.773-42.667-42.666-42.667-23.04 0-42.667 18.773-42.667 42.667 0 23.04 18.987 42.666 42.667 42.666M307.413 128h-60.16l121.6-121.813 30.294 30.293L307.413 128m15.147 15.147l91.52-91.734 4.693-4.48c4.907 8.107 7.894 17.067 7.894 27.734v170.666c0 29.44-23.894 53.334-53.334 53.334S320 274.773 320 245.333v-99.626l2.56-2.56z"/><glyph glyph-name="airballoon" unicode="" horiz-adv-x="512" d="M234.667-42.667C211.2-42.667 192-23.467 192 0v42.667h128V0c0-23.467-19.2-42.667-42.667-42.667h-42.666M256 426.667c15.147 0 29.653-1.92 43.733-5.547 24.96-33.493 41.6-94.933 41.6-165.12 0-48.64-8.106-93.227-21.333-149.333C320 83.2 300.8 64 277.333 64h-42.666C211.2 64 192 83.2 192 106.667 178.773 162.773 170.667 207.36 170.667 256c0 70.187 16.64 131.627 41.6 165.12A174.256 174.256 0 00256 426.667m170.667-149.334c0-67.84-39.467-168.96-96.854-196.48C350.08 119.68 362.667 195.627 362.667 256c0 60.373-12.587 114.987-32.854 153.813 57.387-27.52 96.854-64.64 96.854-132.48m-341.334 0c0 67.84 39.467 104.96 96.854 132.48-20.267-38.826-32.854-93.44-32.854-153.813s12.587-136.32 32.854-175.147c-57.387 27.52-96.854 128.64-96.854 196.48z"/><glyph glyph-name="airplane" unicode="" horiz-adv-x="512" d="M448 106.667v42.666L277.333 256v117.333c0 17.707-14.293 32-32 32s-32-14.293-32-32V256L42.667 149.333v-42.666L213.333 160V42.667l-42.666-32v-32L245.333 0 320-21.333v32l-42.667 32V160L448 106.667z"/><glyph glyph-name="airplane-landing" unicode="" horiz-adv-x="512" d="M53.333 42.667h405.334V0H53.333v42.667m153.174 122.24l92.8-24.747 113.28-30.293c17.066-4.48 34.56 5.546 39.253 22.613 4.48 16.853-5.547 34.56-22.613 39.253l-113.28 30.294-58.88 192.64-41.174 10.666v-176.64l-106.026 28.374-19.84 49.493-30.934 8.32V204.587l34.134-9.174 113.28-30.506z"/><glyph glyph-name="airplane-off" unicode="" horiz-adv-x="512" d="M67.2 335.573L173.44 229.12 45.867 149.333v-42.666L216.533 160V42.667l-42.666-32v-32L248.533 0 323.2-21.333v32l-42.667 32v79.573L402.56 0l27.307 27.093L94.293 362.667M280.533 256v117.333c0 17.707-14.293 32-32 32s-32-14.293-32-32v-78.506L383.36 128l67.84-21.333v42.666L280.533 256z"/><glyph glyph-name="airplane-takeoff" unicode="" horiz-adv-x="512" d="M53.333 42.667h405.334V0H53.333v42.667m417.494 199.68c-4.48 17.066-22.187 27.306-39.254 22.613l-113.28-30.293L170.667 371.84l-40.747-10.88L218.24 208l-106.027-28.373-42.026 32.853-30.934-8.32 38.827-67.413 16.427-28.374 34.133 8.96 113.28 30.507 92.8 24.747L448 202.667c17.28 5.12 27.307 22.613 22.827 39.68z"/><glyph glyph-name="airplay" unicode="" horiz-adv-x="512" d="M128-21.333h256l-128 128M448 384H64c-23.467 0-42.667-19.2-42.667-42.667v-256c0-23.466 19.2-42.666 42.667-42.666h85.333v42.666H64v256h384v-256h-85.333V42.667H448c23.467 0 42.667 19.2 42.667 42.666v256C490.667 364.8 471.467 384 448 384z"/><glyph glyph-name="airport" unicode="" horiz-adv-x="512" d="M319.36 321.707c-2.987 10.88-14.293 17.493-25.173 14.506L221.653 316.8l-94.72 87.893-26.24-7.04 56.747-97.92L89.387 281.6l-26.88 20.907-19.84-5.334 35.413-61.44 226.56 60.587c11.093 3.2 17.493 14.507 14.72 25.387M448 234.667L426.667 192H320l-21.333 42.667L320 256h42.667v42.667H384V256h42.667L448 234.667m21.333-213.334v-42.666H42.667v42.666H320v149.334h106.667V21.333h42.666z"/><glyph glyph-name="alarm" unicode="" horiz-adv-x="512" d="M256 21.333c-82.56 0-149.333 66.774-149.333 149.334S173.44 320 256 320s149.333-66.773 149.333-149.333S338.56 21.333 256 21.333m0 341.334c-106.027 0-192-85.974-192-192s85.973-192 192-192 192 85.973 192 192-85.973 192-192 192m10.667-85.334h-32v-128L336 88.533l16 26.24-85.333 50.56v112m-98.56 98.347L140.8 408.32l-98.133-82.133 27.52-32.64 97.92 82.133m301.226-49.707L371.2 408.32l-27.52-32.64 98.133-82.347 27.52 32.64z"/><glyph glyph-name="alarm-bell" unicode="" horiz-adv-x="512" d="M320 49.92v-71.253H106.667V49.92c65.92-38.187 147.413-38.187 213.333 0m149.333 312.747c0 23.466-19.2 42.666-42.666 42.666-6.614 0-13.014-1.493-18.774-4.48-6.4-3.2-11.946-7.893-16.213-13.653-13.653-19.2-8.96-45.867 10.453-59.52 7.04-4.907 15.787-7.68 24.534-7.68h5.12c36.906-94.507 8.96-201.813-69.12-266.667C355.84 48 348.8 42.667 341.333 37.973V0h21.334v26.88c66.986 47.787 106.666 125.44 106.666 207.787 0 32-5.973 64-17.706 93.44 11.093 8.106 17.706 20.906 17.706 34.56m-85.333-128C384 140.373 307.627 64 213.333 64S42.667 140.373 42.667 234.667s76.373 170.666 170.666 170.666S384 328.96 384 234.667z"/><glyph glyph-name="alarm-check" unicode="" horiz-adv-x="512" d="M224.853 138.027l-45.44 45.44-22.613-22.614 67.84-67.84 128 128-22.613 22.614-105.174-105.6M256 21.333c-82.56 0-149.333 66.774-149.333 149.334S173.44 320 256 320s149.333-66.773 149.333-149.333S338.56 21.333 256 21.333m0 341.334c-106.027 0-192-85.974-192-192s85.973-192 192-192 192 85.973 192 192-85.973 192-192 192m-87.893 13.013L140.8 408.32l-98.133-82.133 27.52-32.64 97.92 82.133m301.226-49.707L371.2 408.32l-27.52-32.64 98.133-82.347 27.52 32.64z"/><glyph glyph-name="alarm-light" unicode="" horiz-adv-x="512" d="M128 300.8l-45.44 45.227 30.08 30.08 45.227-45.44L128 300.8m149.333 125.867v-64h-42.666v64h42.666m152.107-80.64L384 300.8l-29.867 29.867 45.227 45.44 30.08-30.08M96 224v-42.667H32V224h64m320 0h64v-42.667h-64V224M128 21.333h256c23.467 0 42.667-19.2 42.667-42.666H85.333c0 23.466 19.2 42.666 42.667 42.666m128 320c70.613 0 128-57.386 128-128V42.667H128v170.666c0 70.614 57.387 128 128 128z"/><glyph glyph-name="alarm-light-outline" unicode="﯆" horiz-adv-x="512" d="M128 300.8l-45.44 45.227 30.08 30.08 45.227-45.44L128 300.8m149.333 125.867v-64h-42.666v64h42.666m152.107-80.64L384 300.8l-29.867 29.867 45.227 45.44 30.08-30.08M96 224v-42.667H32V224h64m320 0h64v-42.667h-64V224M128 21.333h256c23.467 0 42.667-19.2 42.667-42.666H85.333c0 23.466 19.2 42.666 42.667 42.666m128 320c70.613 0 128-57.386 128-128V42.667H128v170.666c0 70.614 57.387 128 128 128m0-42.666c-47.147 0-85.333-38.187-85.333-85.334v-128h170.666v128c0 47.147-38.186 85.334-85.333 85.334z"/><glyph glyph-name="alarm-multiple" unicode="" horiz-adv-x="512" d="M198.187 378.667L110.08 304.64l-24.747 29.44 88.32 74.027 24.534-29.44m271.146-44.8l-24.746-29.44-88.32 74.24 24.746 29.44 88.32-74.24m-192 28.8C371.627 362.667 448 286.293 448 192S371.627 21.333 277.333 21.333 106.667 97.707 106.667 192s76.373 170.667 170.666 170.667m0-42.667c-70.613 0-128-57.387-128-128s57.387-128 128-128 128 57.387 128 128-57.386 128-128 128M256 288h32v-96.64L356.693 160l-13.226-29.013L256 170.667V288M21.333 149.333c0 53.334 24.107 100.267 62.08 131.627C71.04 253.867 64 224 64 192l1.28-24.107-1.28-18.56c0-48.64 27.093-90.88 66.987-112.64C158.72 10.667 193.493-8.32 232.32-16.64c-13.013-2.987-26.453-4.693-40.32-4.693-94.293 0-170.667 76.373-170.667 170.666z"/><glyph glyph-name="alarm-off" unicode="" horiz-adv-x="512" d="M170.667 378.027L140.8 408.32l-18.347-15.147 30.294-30.506M351.36 55.68C325.547 34.347 292.267 21.333 256 21.333c-82.56 0-149.333 66.774-149.333 149.334 0 36.266 13.013 69.546 34.346 95.36m-78.72 133.12L35.2 371.84 64 343.467l-24.107-19.84 30.294-30.294 23.68 20.054 17.066-17.067C81.707 262.613 64 218.667 64 170.667c0-106.027 85.973-192 192-192 48 0 91.947 17.706 125.653 46.933l46.934-46.933L455.68 5.76 82.987 378.24l-20.694 20.907m407.04-73.174L371.2 408.32l-27.52-32.64 98.133-82.347 27.52 32.64M256 320c82.56 0 149.333-66.773 149.333-149.333 0-17.92-3.413-35.2-9.173-51.2l32.427-32.427C440.96 112.427 448 140.587 448 170.667c0 106.026-85.973 192-192 192-30.08 0-58.24-7.04-83.627-19.414l32.427-32.426c16 5.76 33.28 9.173 51.2 9.173z"/><glyph glyph-name="alarm-plus" unicode="" horiz-adv-x="512" d="M277.333 256h-42.666v-64h-64v-42.667h64v-64h42.666v64h64V192h-64M256 21.333c-82.56 0-149.333 66.774-149.333 149.334S173.44 320 256 320s149.333-66.773 149.333-149.333S338.56 21.333 256 21.333m0 341.334c-106.027 0-192-85.974-192-192s85.973-192 192-192 192 85.973 192 192-85.973 192-192 192m213.333-36.694L371.2 408.32l-27.52-32.64 98.133-82.347M168.107 375.68L140.8 408.32l-98.133-82.133 27.52-32.64 97.92 82.133z"/><glyph glyph-name="alarm-snooze" unicode="" horiz-adv-x="512" d="M168.107 375.68L140.8 408.32l-98.133-82.133 27.52-32.64 97.92 82.133m301.226-49.707L371.2 408.32l-27.52-32.64 98.133-82.347 27.52 32.64M256 362.667c-106.027 0-192-85.974-192-192s85.973-192 192-192 192 85.973 192 192-85.973 192-192 192m0-341.334c-82.56 0-149.333 66.774-149.333 149.334S173.44 320 256 320s149.333-66.773 149.333-149.333S338.56 21.333 256 21.333m-64 192h77.44l-77.44-89.6v-38.4h128V128h-77.44L320 217.6V256H192v-42.667z"/><glyph glyph-name="album" unicode="" horiz-adv-x="512" d="M256 213.333c-11.733 0-21.333-9.6-21.333-21.333s9.6-21.333 21.333-21.333 21.333 9.6 21.333 21.333-9.6 21.333-21.333 21.333M256 96c-53.333 0-96 42.667-96 96s42.667 96 96 96 96-42.667 96-96-42.667-96-96-96m0 309.333C138.24 405.333 42.667 309.76 42.667 192S138.24-21.333 256-21.333 469.333 74.24 469.333 192 373.76 405.333 256 405.333z"/><glyph glyph-name="alert" unicode="" horiz-adv-x="512" d="M277.333 149.333h-42.666v85.334h42.666m0-170.667h-42.666v42.667h42.666M21.333 0h469.334L256 405.333 21.333 0z"/><glyph glyph-name="alert-box" unicode="" horiz-adv-x="512" d="M106.667 384h298.666C428.8 384 448 364.8 448 341.333V42.667C448 19.2 428.8 0 405.333 0H106.667C83.2 0 64 19.2 64 42.667v298.666C64 364.8 83.2 384 106.667 384m170.666-213.333v128h-42.666v-128h42.666m0-85.334V128h-42.666V85.333h42.666z"/><glyph glyph-name="alert-box-outline" unicode="ﳀ" horiz-adv-x="512" d="M405.333 42.667H106.667v298.666h298.666m0 42.667H106.667C83.2 384 64 364.8 64 341.333V42.667C64 19.2 83.2 0 106.667 0h298.666C428.8 0 448 19.2 448 42.667v298.666c0 23.68-19.2 42.667-42.667 42.667M234.667 128h42.666V85.333h-42.666V128m0 170.667h42.666v-128h-42.666v128"/><glyph glyph-name="alert-circle" unicode="" horiz-adv-x="512" d="M277.333 170.667h-42.666v128h42.666m0-213.334h-42.666V128h42.666M256 405.333C138.24 405.333 42.667 309.76 42.667 192S138.24-21.333 256-21.333 469.333 74.24 469.333 192 373.76 405.333 256 405.333z"/><glyph glyph-name="alert-circle-outline" unicode="" horiz-adv-x="512" d="M234.667 128h42.666V85.333h-42.666V128m0 170.667h42.666v-128h-42.666v128M256 405.333c-117.973 0-213.333-96-213.333-213.333C42.667 74.24 138.24-21.333 256-21.333S469.333 74.24 469.333 192 373.76 405.333 256 405.333m0-384C161.707 21.333 85.333 97.707 85.333 192S161.707 362.667 256 362.667 426.667 286.293 426.667 192 350.293 21.333 256 21.333z"/><glyph glyph-name="alert-decagram" unicode="" horiz-adv-x="512" d="M490.667 192l-52.054 59.307 7.254 78.506-77.014 17.494-40.32 67.84L256 384l-72.533 31.147-40.32-67.84-77.014-17.28 7.254-78.507L21.333 192l52.054-59.307-7.254-78.72 77.014-17.493 40.32-67.84L256 0l72.533-31.147 40.32 67.84 77.014 17.494-7.254 78.506L490.667 192M277.333 85.333h-42.666V128h42.666V85.333m0 85.334h-42.666v128h42.666v-128z"/><glyph glyph-name="alert-decagram-outline" unicode="ﳁ" horiz-adv-x="512" d="M490.667 192l-52.054-59.307 7.254-78.506-77.014-17.494-40.32-67.84L256 0l-72.533-31.36-40.32 67.84-77.014 17.493 7.254 78.72L21.333 192l52.054 59.52-7.254 78.507 77.014 17.28 40.32 67.84L256 384l72.533 31.147 40.32-67.84 77.014-17.494-7.254-78.506L490.667 192m-56.96 0l-39.04 45.013 5.12 59.52-58.454 12.8-30.293 51.84-55.04-23.68-55.04 23.68-30.293-51.84-58.454-12.586 5.12-59.52L78.293 192l39.04-44.8-5.12-59.733 58.454-12.8 30.293-51.84L256 46.72l55.04-23.68 30.293 51.627 58.454 13.013-5.12 59.52 39.04 44.8m-199.04-64h42.666V85.333h-42.666V128m0 170.667h42.666v-128h-42.666v128"/><glyph glyph-name="alert-octagon" unicode="" horiz-adv-x="512" d="M277.333 170.667h-42.666v128h42.666M256 78.933c-15.36 0-27.733 12.374-27.733 27.734 0 15.36 12.373 27.733 27.733 27.733 15.36 0 27.733-12.373 27.733-27.733 0-15.36-12.373-27.734-27.733-27.734M335.573 384H176.427L64 271.573V112.427L176.427 0h159.146L448 112.427v159.146L335.573 384z"/><glyph glyph-name="alert-octagon-outline" unicode="ﳂ" horiz-adv-x="512" d="M176.427 384L64 271.573V112.427L176.427 0h159.146C373.333 37.547 448 112.427 448 112.427v159.146L335.573 384m-141.44-42.667h123.734l87.466-87.466V130.133l-87.466-87.466H194.133l-87.466 87.466v123.734m128-125.867h42.666V85.333h-42.666V128m0 170.667h42.666v-128h-42.666v128"/><glyph glyph-name="alert-octagram" unicode="" horiz-adv-x="512" d="M46.933 105.387L82.773 192l-35.84 86.613 86.614 35.84 35.84 86.614L256 365.227l86.613 35.84 35.84-86.614 86.614-35.84L429.227 192l35.84-86.613-86.614-35.84-35.84-86.614L256 18.773l-86.613-35.84-35.84 86.614-86.614 35.84m230.4-20.054V128h-42.666V85.333h42.666m0 85.334v128h-42.666v-128h42.666z"/><glyph glyph-name="alert-octagram-outline" unicode="ﳃ" horiz-adv-x="512" d="M46.933 105.387L82.773 192l-35.84 86.613 86.614 35.84 35.84 86.614L256 365.227l86.613 35.84 35.84-86.614 86.614-35.84L429.227 192l35.84-86.613-86.614-35.84-35.84-86.614L256 18.773l-86.613-35.84-35.84 86.614-86.614 35.84M102.613 256l26.454-64-26.454-64 63.574-25.813L192 38.613l64 26.454 64-26.454 25.813 63.574L409.387 128l-26.454 64 26.454 64-63.574 25.813L320 345.387l-64-26.454-64 26.454-25.813-63.574L102.613 256m132.054-128h42.666V85.333h-42.666V128m0 170.667h42.666v-128h-42.666v128"/><glyph glyph-name="alert-outline" unicode="" horiz-adv-x="512" d="M256 405.333L21.333 0h469.334M256 320L416.64 42.667H95.36m139.307 192v-85.334h42.666v85.334m-42.666-128V64h42.666v42.667"/><glyph glyph-name="alien" unicode="" horiz-adv-x="512" d="M256 384c106.027 0 192-76.373 192-170.667S320 0 256 0 64 119.04 64 213.333 149.973 384 256 384m-36.053-169.173c-21.76 34.986-60.587 50.133-86.614 33.92-26.026-16.214-29.44-57.814-7.68-92.8 21.974-34.987 60.8-50.134 86.827-33.92 26.027 16.64 29.227 57.813 7.467 92.8m72.106 0c-21.76-34.987-18.56-76.16 7.467-92.8 26.027-16.214 64.853-1.067 86.827 33.92 21.76 34.986 18.346 76.586-7.68 92.8-26.027 16.213-64.854 1.066-86.614-33.92M256 69.333c-42.667 0-53.333 16-53.333 16 0-.64 10.666-42.666 53.333-42.666s53.333 42.666 53.333 42.666-10.666-16-53.333-16z"/><glyph glyph-name="all-inclusive" unicode="" horiz-adv-x="512" d="M396.8 306.773c-30.72 0-59.733-11.946-80.427-32.64L166.4 141.013c-13.653-13.653-31.787-21.12-51.2-21.12-39.893 0-72.533 32.214-72.533 72.107s32.64 72.107 72.533 72.107c19.413 0 37.547-7.467 52.053-21.974L191.36 220.8 224 249.387l-27.307 23.68c-21.76 21.76-50.773 33.706-81.493 33.706C51.627 306.773 0 255.147 0 192S51.627 77.227 115.2 77.227c30.72 0 59.733 11.946 80.427 32.64L345.6 242.987c13.653 13.653 31.787 21.12 51.2 21.12 39.893 0 72.533-32.214 72.533-72.107s-32.64-72.107-72.533-72.107c-19.2 0-37.547 7.467-52.053 21.974L320 163.413l-32-28.586 27.307-23.894c21.76-21.546 50.56-33.493 81.493-33.493C460.373 77.44 512 128.853 512 192c0 64-51.627 114.773-115.2 114.773z"/><glyph glyph-name="alpha" unicode="" horiz-adv-x="512" d="M385.707 68.267c-9.814-2.774-18.56-4.267-26.24-4.267-25.6 0-42.88 18.773-51.627 56.533h-1.067C285.653 79.787 256 59.52 218.667 59.52c-27.947 0-50.347 10.453-67.2 31.573s-25.174 47.574-25.174 79.574c0 37.333 9.6 67.2 28.587 90.453 18.987 23.253 44.8 34.987 77.44 34.987 17.493 0 33.28-4.907 46.933-14.507 13.654-9.813 24.107-23.467 31.36-41.173h.854l15.146 51.2h54.614l-45.654-113.494c5.12-26.453 10.454-44.586 16.427-54.186 5.12-9.6 12.373-14.507 21.333-14.507 5.12 0 9.174.853 12.8 2.347l-.426-43.52m-90.88 111.786c-4.48 24.107-11.734 42.88-21.547 55.68-9.6 13.014-21.333 19.414-34.773 19.414-17.494 0-31.574-7.894-42.027-23.467-10.453-15.787-15.147-35.2-15.147-58.027 0-20.906 4.054-38.186 13.227-52.266 8.96-14.08 21.12-20.907 36.267-20.907 12.8 0 24.533 6.187 34.986 17.92 10.667 12.16 19.414 29.867 26.454 53.12l2.56 8.533z"/><glyph glyph-name="alpha-a" unicode="A" horiz-adv-x="512" d="M234.667 298.667C211.2 298.667 192 279.467 192 256V85.333h42.667v85.334h42.666V85.333H320V256c0 23.467-19.2 42.667-42.667 42.667h-42.666m0-42.667h42.666v-42.667h-42.666V256z"/><glyph glyph-name="alpha-a-box" unicode="﫭" horiz-adv-x="512" d="M64 341.333C64 364.8 83.2 384 106.667 384h298.666C428.8 384 448 364.8 448 341.333V42.667C448 19.2 428.8 0 405.333 0H106.667C82.987 0 64 19.2 64 42.667v298.666m170.667-42.666C211.2 298.667 192 279.467 192 256V85.333h42.667v85.334h42.666V85.333H320V256c0 23.467-19.2 42.667-42.667 42.667h-42.666m0-42.667h42.666v-42.667h-42.666V256z"/><glyph glyph-name="alpha-a-box-outline" unicode="﯇" horiz-adv-x="512" d="M64 341.333C64 364.8 83.2 384 106.667 384h298.666C428.8 384 448 364.8 448 341.333V42.667C448 19.2 428.8 0 405.333 0H106.667C82.987 0 64 19.2 64 42.667v298.666m42.667 0V42.667h298.666v298.666H106.667m128-42.666h42.666C300.8 298.667 320 279.467 320 256V85.333h-42.667v85.334h-42.666V85.333H192V256c0 23.467 19.2 42.667 42.667 42.667m0-42.667v-42.667h42.666V256h-42.666z"/><glyph glyph-name="alpha-a-circle" unicode="﯈" horiz-adv-x="512" d="M256 405.333c117.76 0 213.333-95.573 213.333-213.333S373.76-21.333 256-21.333 42.667 74.24 42.667 192 138.24 405.333 256 405.333m-21.333-106.666C211.2 298.667 192 279.467 192 256V85.333h42.667v85.334h42.666V85.333H320V256c0 23.467-19.2 42.667-42.667 42.667h-42.666m0-42.667h42.666v-42.667h-42.666V256z"/><glyph glyph-name="alpha-a-circle-outline" unicode="﯉" horiz-adv-x="512" d="M234.667 298.667h42.666C300.8 298.667 320 279.467 320 256V85.333h-42.667v85.334h-42.666V85.333H192V256c0 23.467 19.2 42.667 42.667 42.667m0-42.667v-42.667h42.666V256h-42.666M256 21.333c94.293 0 170.667 76.374 170.667 170.667S350.293 362.667 256 362.667 85.333 286.293 85.333 192 161.707 21.333 256 21.333m0 384c117.76 0 213.333-95.573 213.333-213.333S373.76-21.333 256-21.333 42.667 74.24 42.667 192 138.24 405.333 256 405.333z"/><glyph glyph-name="alpha-b" unicode="B" horiz-adv-x="512" d="M320 224v32c0 23.467-19.2 42.667-42.667 42.667H192V85.333h85.333C300.8 85.333 320 104.533 320 128v32c0 17.067-14.933 32-32 32 17.067 0 32 14.933 32 32m-42.667-96h-42.666v42.667h42.666V128m0 85.333h-42.666V256h42.666v-42.667z"/><glyph glyph-name="alpha-b-box" unicode="﫮" horiz-adv-x="512" d="M106.667 384h298.666C428.8 384 448 364.8 448 341.333V42.667C448 19.2 428.8 0 405.333 0H106.667C83.2 0 64 19.2 64 42.667v298.666C64 364.8 83.2 384 106.667 384M320 224v32c0 23.467-19.2 42.667-42.667 42.667H192V85.333h85.333C300.8 85.333 320 104.533 320 128v32c0 17.067-14.933 32-32 32 17.067 0 32 14.933 32 32m-42.667-96h-42.666v42.667h42.666V128m0 85.333h-42.666V256h42.666v-42.667z"/><glyph glyph-name="alpha-b-box-outline" unicode="﯊" horiz-adv-x="512" d="M320 224c0-17.067-14.933-32-32-32 17.067 0 32-14.933 32-32v-32c0-23.467-19.2-42.667-42.667-42.667H192v213.334h85.333C300.8 298.667 320 279.467 320 256v-32m-42.667-96v42.667h-42.666V128h42.666m0 85.333V256h-42.666v-42.667h42.666M64 341.333C64 364.8 83.2 384 106.667 384h298.666C428.8 384 448 364.8 448 341.333V42.667C448 19.2 428.8 0 405.333 0H106.667C82.987 0 64 19.2 64 42.667v298.666m42.667 0V42.667h298.666v298.666H106.667z"/><glyph glyph-name="alpha-b-circle" unicode="﯋" horiz-adv-x="512" d="M256 405.333c117.76 0 213.333-95.573 213.333-213.333S373.76-21.333 256-21.333 42.667 74.24 42.667 192 138.24 405.333 256 405.333M320 224v32c0 23.467-19.2 42.667-42.667 42.667H192V85.333h85.333C300.8 85.333 320 104.533 320 128v32c0 17.067-14.933 32-32 32 17.067 0 32 14.933 32 32m-42.667-96h-42.666v42.667h42.666V128m0 85.333h-42.666V256h42.666v-42.667z"/><glyph glyph-name="alpha-b-circle-outline" unicode="﯌" horiz-adv-x="512" d="M320 224c0-17.067-14.933-32-32-32 17.067 0 32-14.933 32-32v-32c0-23.467-19.2-42.667-42.667-42.667H192v213.334h85.333C300.8 298.667 320 279.467 320 256v-32m-42.667-96v42.667h-42.666V128h42.666m0 85.333V256h-42.666v-42.667h42.666m-21.333 192c117.76 0 213.333-95.573 213.333-213.333S373.76-21.333 256-21.333 42.667 74.24 42.667 192 138.24 405.333 256 405.333m0-42.666c-94.293 0-170.667-76.374-170.667-170.667S161.707 21.333 256 21.333 426.667 97.707 426.667 192 350.293 362.667 256 362.667z"/><glyph glyph-name="alpha-c" unicode="C" horiz-adv-x="512" d="M234.667 298.667C211.2 298.667 192 279.467 192 256V128c0-23.467 19.2-42.667 42.667-42.667h42.666C300.8 85.333 320 104.533 320 128v21.333h-42.667V128h-42.666v128h42.666v-21.333H320V256c0 23.467-19.2 42.667-42.667 42.667h-42.666z"/><glyph glyph-name="alpha-c-box" unicode="﫯" horiz-adv-x="512" d="M106.667 384h298.666C428.8 384 448 364.8 448 341.333V42.667C448 19.2 428.8 0 405.333 0H106.667C83.2 0 64 19.2 64 42.667v298.666C64 364.8 83.2 384 106.667 384m128-85.333C211.2 298.667 192 279.467 192 256V128c0-23.467 19.2-42.667 42.667-42.667h42.666C300.8 85.333 320 104.533 320 128v21.333h-42.667V128h-42.666v128h42.666v-21.333H320V256c0 23.467-19.2 42.667-42.667 42.667h-42.666z"/><glyph glyph-name="alpha-c-box-outline" unicode="﯍" horiz-adv-x="512" d="M64 341.333C64 364.8 83.2 384 106.667 384h298.666C428.8 384 448 364.8 448 341.333V42.667C448 19.2 428.8 0 405.333 0H106.667C82.987 0 64 19.2 64 42.667v298.666m42.667 0V42.667h298.666v298.666H106.667m128-42.666h42.666C300.8 298.667 320 279.467 320 256v-21.333h-42.667V256h-42.666V128h42.666v21.333H320V128c0-23.467-19.2-42.667-42.667-42.667h-42.666C211.2 85.333 192 104.533 192 128v128c0 23.467 19.2 42.667 42.667 42.667z"/><glyph glyph-name="alpha-c-circle" unicode="﯎" horiz-adv-x="512" d="M256 405.333c117.76 0 213.333-95.573 213.333-213.333S373.76-21.333 256-21.333 42.667 74.24 42.667 192 138.24 405.333 256 405.333m-21.333-106.666C211.2 298.667 192 279.467 192 256V128c0-23.467 19.2-42.667 42.667-42.667h42.666C300.8 85.333 320 104.533 320 128v21.333h-42.667V128h-42.666v128h42.666v-21.333H320V256c0 23.467-19.2 42.667-42.667 42.667h-42.666z"/><glyph glyph-name="alpha-c-circle-outline" unicode="﯏" horiz-adv-x="512" d="M234.667 298.667h42.666C300.8 298.667 320 279.467 320 256v-21.333h-42.667V256h-42.666V128h42.666v21.333H320V128c0-23.467-19.2-42.667-42.667-42.667h-42.666C211.2 85.333 192 104.533 192 128v128c0 23.467 19.2 42.667 42.667 42.667M256 405.333c117.76 0 213.333-95.573 213.333-213.333S373.76-21.333 256-21.333 42.667 74.24 42.667 192 138.24 405.333 256 405.333m0-42.666c-94.293 0-170.667-76.374-170.667-170.667S161.707 21.333 256 21.333 426.667 97.707 426.667 192 350.293 362.667 256 362.667z"/><glyph glyph-name="alpha-d" unicode="D" horiz-adv-x="512" d="M192 298.667V85.333h85.333C300.8 85.333 320 104.533 320 128v128c0 23.467-19.2 42.667-42.667 42.667H192M234.667 256h42.666V128h-42.666v128z"/><glyph glyph-name="alpha-d-box" unicode="﫰" horiz-adv-x="512" d="M192 298.667V85.333h85.333C300.8 85.333 320 104.533 320 128v128c0 23.467-19.2 42.667-42.667 42.667H192M234.667 256h42.666V128h-42.666v128m-128 128h298.666C428.8 384 448 364.8 448 341.333V42.667C448 19.2 428.8 0 405.333 0H106.667C83.2 0 64 19.2 64 42.667v298.666C64 364.8 83.2 384 106.667 384z"/><glyph glyph-name="alpha-d-box-outline" unicode="﯐" horiz-adv-x="512" d="M192 298.667h85.333C300.8 298.667 320 279.467 320 256V128c0-23.467-19.2-42.667-42.667-42.667H192v213.334M234.667 256V128h42.666v128h-42.666M64 341.333C64 364.8 83.2 384 106.667 384h298.666C428.8 384 448 364.8 448 341.333V42.667C448 19.2 428.8 0 405.333 0H106.667C82.987 0 64 19.2 64 42.667v298.666m42.667 0V42.667h298.666v298.666H106.667z"/><glyph glyph-name="alpha-d-circle" unicode="﯑" horiz-adv-x="512" d="M256 405.333c117.76 0 213.333-95.573 213.333-213.333S373.76-21.333 256-21.333 42.667 74.24 42.667 192 138.24 405.333 256 405.333m-64-106.666V85.333h85.333C300.8 85.333 320 104.533 320 128v128c0 23.467-19.2 42.667-42.667 42.667H192M234.667 256h42.666V128h-42.666v128z"/><glyph glyph-name="alpha-d-circle-outline" unicode="﯒" horiz-adv-x="512" d="M192 298.667h85.333C300.8 298.667 320 279.467 320 256V128c0-23.467-19.2-42.667-42.667-42.667H192v213.334M234.667 256V128h42.666v128h-42.666M256 405.333c117.76 0 213.333-95.573 213.333-213.333S373.76-21.333 256-21.333 42.667 74.24 42.667 192 138.24 405.333 256 405.333m0-42.666c-94.293 0-170.667-76.374-170.667-170.667S161.707 21.333 256 21.333 426.667 97.707 426.667 192 350.293 362.667 256 362.667z"/><glyph glyph-name="alpha-e" unicode="E" horiz-adv-x="512" d="M192 298.667V85.333h128V128h-85.333v42.667H320v42.666h-85.333V256H320v42.667H192z"/><glyph glyph-name="alpha-e-box" unicode="﫱" horiz-adv-x="512" d="M192 298.667V85.333h128V128h-85.333v42.667H320v42.666h-85.333V256H320v42.667H192M106.667 384h298.666C428.8 384 448 364.8 448 341.333V42.667C448 19.2 428.8 0 405.333 0H106.667C83.2 0 64 19.2 64 42.667v298.666C64 364.8 83.2 384 106.667 384z"/><glyph glyph-name="alpha-e-box-outline" unicode="ﯓ" horiz-adv-x="512" d="M192 298.667h128V256h-85.333v-42.667H320v-42.666h-85.333V128H320V85.333H192v213.334M64 341.333C64 364.8 83.2 384 106.667 384h298.666C428.8 384 448 364.8 448 341.333V42.667C448 19.2 428.8 0 405.333 0H106.667C82.987 0 64 19.2 64 42.667v298.666m42.667 0V42.667h298.666v298.666H106.667z"/><glyph glyph-name="alpha-e-circle" unicode="ﯔ" horiz-adv-x="512" d="M256 405.333c117.76 0 213.333-95.573 213.333-213.333S373.76-21.333 256-21.333 42.667 74.24 42.667 192 138.24 405.333 256 405.333m-64-106.666V85.333h128V128h-85.333v42.667H320v42.666h-85.333V256H320v42.667H192z"/><glyph glyph-name="alpha-e-circle-outline" unicode="ﯕ" horiz-adv-x="512" d="M192 298.667h128V256h-85.333v-42.667H320v-42.666h-85.333V128H320V85.333H192v213.334m64 106.666c117.76 0 213.333-95.573 213.333-213.333S373.76-21.333 256-21.333 42.667 74.24 42.667 192 138.24 405.333 256 405.333m0-42.666c-94.293 0-170.667-76.374-170.667-170.667S161.707 21.333 256 21.333 426.667 97.707 426.667 192 350.293 362.667 256 362.667z"/><glyph glyph-name="alpha-f" unicode="F" horiz-adv-x="512" d="M192 298.667V85.333h42.667v85.334h64v42.666h-64V256H320v42.667H192z"/><glyph glyph-name="alpha-f-box" unicode="﫲" horiz-adv-x="512" d="M192 298.667V85.333h42.667v85.334h64v42.666h-64V256H320v42.667H192M106.667 384h298.666C428.8 384 448 364.8 448 341.333V42.667C448 19.2 428.8 0 405.333 0H106.667C83.2 0 64 19.2 64 42.667v298.666C64 364.8 83.2 384 106.667 384z"/><glyph glyph-name="alpha-f-box-outline" unicode="ﯖ" horiz-adv-x="512" d="M192 298.667h128V256h-85.333v-42.667h64v-42.666h-64V85.333H192v213.334M64 341.333C64 364.8 83.2 384 106.667 384h298.666C428.8 384 448 364.8 448 341.333V42.667C448 19.2 428.8 0 405.333 0H106.667C82.987 0 64 19.2 64 42.667v298.666m42.667 0V42.667h298.666v298.666H106.667z"/><glyph glyph-name="alpha-f-circle" unicode="ﯗ" horiz-adv-x="512" d="M256 405.333c117.76 0 213.333-95.573 213.333-213.333S373.76-21.333 256-21.333 42.667 74.24 42.667 192 138.24 405.333 256 405.333m-64-106.666V85.333h42.667v85.334h64v42.666h-64V256H320v42.667H192z"/><glyph glyph-name="alpha-f-circle-outline" unicode="ﯘ" horiz-adv-x="512" d="M192 298.667h128V256h-85.333v-42.667h64v-42.666h-64V85.333H192v213.334m64 106.666c117.76 0 213.333-95.573 213.333-213.333S373.76-21.333 256-21.333 42.667 74.24 42.667 192 138.24 405.333 256 405.333m0-42.666c-94.293 0-170.667-76.374-170.667-170.667S161.707 21.333 256 21.333 426.667 97.707 426.667 192 350.293 362.667 256 362.667z"/><glyph glyph-name="alpha-g" unicode="G" horiz-adv-x="512" d="M234.667 298.667C211.2 298.667 192 279.467 192 256V128c0-23.467 19.2-42.667 42.667-42.667h42.666C300.8 85.333 320 104.533 320 128v85.333h-42.667V128h-42.666v128H320v42.667h-85.333z"/><glyph glyph-name="alpha-g-box" unicode="﫳" horiz-adv-x="512" d="M234.667 298.667C211.2 298.667 192 279.467 192 256V128c0-23.467 19.2-42.667 42.667-42.667h42.666C300.8 85.333 320 104.533 320 128v85.333h-42.667V128h-42.666v128H320v42.667h-85.333m-128 85.333h298.666C428.8 384 448 364.8 448 341.333V42.667C448 19.2 428.8 0 405.333 0H106.667C83.2 0 64 19.2 64 42.667v298.666C64 364.8 83.2 384 106.667 384z"/><glyph glyph-name="alpha-g-box-outline" unicode="ﯙ" horiz-adv-x="512" d="M234.667 298.667H320V256h-85.333V128h42.666v85.333H320V128c0-23.467-19.2-42.667-42.667-42.667h-42.666C211.2 85.333 192 104.533 192 128v128c0 23.467 19.2 42.667 42.667 42.667M64 341.333C64 364.8 83.2 384 106.667 384h298.666C428.8 384 448 364.8 448 341.333V42.667C448 19.2 428.8 0 405.333 0H106.667C82.987 0 64 19.2 64 42.667v298.666m42.667 0V42.667h298.666v298.666H106.667z"/><glyph glyph-name="alpha-g-circle" unicode="ﯚ" horiz-adv-x="512" d="M256 405.333c117.76 0 213.333-95.573 213.333-213.333S373.76-21.333 256-21.333 42.667 74.24 42.667 192 138.24 405.333 256 405.333m-21.333-106.666C211.2 298.667 192 279.467 192 256V128c0-23.467 19.2-42.667 42.667-42.667h42.666C300.8 85.333 320 104.533 320 128v85.333h-42.667V128h-42.666v128H320v42.667h-85.333z"/><glyph glyph-name="alpha-g-circle-outline" unicode="ﯛ" horiz-adv-x="512" d="M234.667 298.667H320V256h-85.333V128h42.666v85.333H320V128c0-23.467-19.2-42.667-42.667-42.667h-42.666C211.2 85.333 192 104.533 192 128v128c0 23.467 19.2 42.667 42.667 42.667M256 405.333c117.76 0 213.333-95.573 213.333-213.333S373.76-21.333 256-21.333 42.667 74.24 42.667 192 138.24 405.333 256 405.333m0-42.666c-94.293 0-170.667-76.374-170.667-170.667S161.707 21.333 256 21.333 426.667 97.707 426.667 192 350.293 362.667 256 362.667z"/><glyph glyph-name="alpha-h" unicode="H" horiz-adv-x="512" d="M192 298.667V85.333h42.667v85.334h42.666V85.333H320v213.334h-42.667v-85.334h-42.666v85.334H192z"/><glyph glyph-name="alpha-h-box" unicode="﫴" horiz-adv-x="512" d="M192 298.667V85.333h42.667v85.334h42.666V85.333H320v213.334h-42.667v-85.334h-42.666v85.334H192M106.667 384h298.666C428.8 384 448 364.8 448 341.333V42.667C448 19.2 428.8 0 405.333 0H106.667C83.2 0 64 19.2 64 42.667v298.666C64 364.8 83.2 384 106.667 384z"/><glyph glyph-name="alpha-h-box-outline" unicode="ﯜ" horiz-adv-x="512" d="M192 298.667h42.667v-85.334h42.666v85.334H320V85.333h-42.667v85.334h-42.666V85.333H192v213.334M64 341.333C64 364.8 83.2 384 106.667 384h298.666C428.8 384 448 364.8 448 341.333V42.667C448 19.2 428.8 0 405.333 0H106.667C82.987 0 64 19.2 64 42.667v298.666m42.667 0V42.667h298.666v298.666H106.667z"/><glyph glyph-name="alpha-h-circle" unicode="ﯝ" horiz-adv-x="512" d="M256 405.333c117.76 0 213.333-95.573 213.333-213.333S373.76-21.333 256-21.333 42.667 74.24 42.667 192 138.24 405.333 256 405.333m-64-106.666V85.333h42.667v85.334h42.666V85.333H320v213.334h-42.667v-85.334h-42.666v85.334H192z"/><glyph glyph-name="alpha-h-circle-outline" unicode="ﯞ" horiz-adv-x="512" d="M192 298.667h42.667v-85.334h42.666v85.334H320V85.333h-42.667v85.334h-42.666V85.333H192v213.334m64 106.666c117.76 0 213.333-95.573 213.333-213.333S373.76-21.333 256-21.333 42.667 74.24 42.667 192 138.24 405.333 256 405.333m0-42.666c-94.293 0-170.667-76.374-170.667-170.667S161.707 21.333 256 21.333 426.667 97.707 426.667 192 350.293 362.667 256 362.667z"/><glyph glyph-name="alpha-i" unicode="I" horiz-adv-x="512" d="M298.667 298.667V256h-21.334V128h21.334V85.333h-85.334V128h21.334v128h-21.334v42.667h85.334z"/><glyph glyph-name="alpha-i-box" unicode="﫵" horiz-adv-x="512" d="M298.667 298.667h-85.334V256h21.334V128h-21.334V85.333h85.334V128h-21.334v128h21.334v42.667m-192 85.333h298.666C428.8 384 448 364.8 448 341.333V42.667C448 19.2 428.8 0 405.333 0H106.667C83.2 0 64 19.2 64 42.667v298.666C64 364.8 83.2 384 106.667 384z"/><glyph glyph-name="alpha-i-box-outline" unicode="ﯟ" horiz-adv-x="512" d="M298.667 298.667V256h-21.334V128h21.334V85.333h-85.334V128h21.334v128h-21.334v42.667h85.334m-192 85.333h298.666C428.8 384 448 364.8 448 341.333V42.667C448 19.2 428.8 0 405.333 0H106.667C83.2 0 64 19.2 64 42.667v298.666C64 364.8 83.2 384 106.667 384m0-42.667V42.667h298.666v298.666H106.667z"/><glyph glyph-name="alpha-i-circle" unicode="ﯠ" horiz-adv-x="512" d="M256 405.333c117.76 0 213.333-95.573 213.333-213.333S373.76-21.333 256-21.333 42.667 74.24 42.667 192 138.24 405.333 256 405.333m42.667-106.666h-85.334V256h21.334V128h-21.334V85.333h85.334V128h-21.334v128h21.334v42.667z"/><glyph glyph-name="alpha-i-circle-outline" unicode="ﯡ" horiz-adv-x="512" d="M298.667 298.667V256h-21.334V128h21.334V85.333h-85.334V128h21.334v128h-21.334v42.667h85.334M256 405.333c117.76 0 213.333-95.573 213.333-213.333S373.76-21.333 256-21.333 42.667 74.24 42.667 192 138.24 405.333 256 405.333m0-42.666c-94.293 0-170.667-76.374-170.667-170.667S161.707 21.333 256 21.333 426.667 97.707 426.667 192 350.293 362.667 256 362.667z"/><glyph glyph-name="alpha-j" unicode="J" horiz-adv-x="512" d="M277.333 298.667V128h-42.666v21.333H192V128c0-23.467 19.2-42.667 42.667-42.667h42.666C300.8 85.333 320 104.533 320 128v170.667h-42.667z"/><glyph glyph-name="alpha-j-box" unicode="﫶" horiz-adv-x="512" d="M277.333 298.667V128h-42.666v21.333H192V128c0-23.467 19.2-42.667 42.667-42.667h42.666C300.8 85.333 320 104.533 320 128v170.667h-42.667M106.667 384h298.666C428.8 384 448 364.8 448 341.333V42.667C448 19.2 428.8 0 405.333 0H106.667C83.2 0 64 19.2 64 42.667v298.666C64 364.8 83.2 384 106.667 384z"/><glyph glyph-name="alpha-j-box-outline" unicode="ﯢ" horiz-adv-x="512" d="M277.333 298.667H320V128c0-23.467-19.2-42.667-42.667-42.667h-42.666C211.2 85.333 192 104.533 192 128v21.333h42.667V128h42.666v170.667M106.667 384h298.666C428.8 384 448 364.8 448 341.333V42.667C448 19.2 428.8 0 405.333 0H106.667C83.2 0 64 19.2 64 42.667v298.666C64 364.8 83.2 384 106.667 384m0-42.667V42.667h298.666v298.666H106.667z"/><glyph glyph-name="alpha-j-circle" unicode="ﯣ" horiz-adv-x="512" d="M256 405.333c117.76 0 213.333-95.573 213.333-213.333S373.76-21.333 256-21.333 42.667 74.24 42.667 192 138.24 405.333 256 405.333m21.333-106.666V128h-42.666v21.333H192V128c0-23.467 19.2-42.667 42.667-42.667h42.666C300.8 85.333 320 104.533 320 128v170.667h-42.667z"/><glyph glyph-name="alpha-j-circle-outline" unicode="ﯤ" horiz-adv-x="512" d="M277.333 298.667H320V128c0-23.467-19.2-42.667-42.667-42.667h-42.666C211.2 85.333 192 104.533 192 128v21.333h42.667V128h42.666v170.667M256 405.333c117.76 0 213.333-95.573 213.333-213.333S373.76-21.333 256-21.333 42.667 74.24 42.667 192 138.24 405.333 256 405.333m0-42.666c-94.293 0-170.667-76.374-170.667-170.667S161.707 21.333 256 21.333 426.667 97.707 426.667 192 350.293 362.667 256 362.667z"/><glyph glyph-name="alpha-k" unicode="K" horiz-adv-x="512" d="M192 298.667V85.333h42.667v71.04l42.666-71.04H320L256 192l64 106.667h-42.667l-42.666-71.04v71.04H192z"/><glyph glyph-name="alpha-k-box" unicode="﫷" horiz-adv-x="512" d="M192 298.667V85.333h42.667v71.04l42.666-71.04H320L256 192l64 106.667h-42.667l-42.666-71.04v71.04H192M106.667 384h298.666C428.8 384 448 364.8 448 341.333V42.667C448 19.2 428.8 0 405.333 0H106.667C83.2 0 64 19.2 64 42.667v298.666C64 364.8 83.2 384 106.667 384z"/><glyph glyph-name="alpha-k-box-outline" unicode="ﯥ" horiz-adv-x="512" d="M192 298.667h42.667v-71.04l42.666 71.04H320L256 192l64-106.667h-42.667l-42.666 71.04v-71.04H192v213.334M106.667 384h298.666C428.8 384 448 364.8 448 341.333V42.667C448 19.2 428.8 0 405.333 0H106.667C83.2 0 64 19.2 64 42.667v298.666C64 364.8 83.2 384 106.667 384m0-42.667V42.667h298.666v298.666H106.667z"/><glyph glyph-name="alpha-k-circle" unicode="ﯦ" horiz-adv-x="512" d="M256 405.333c117.76 0 213.333-95.573 213.333-213.333S373.76-21.333 256-21.333 42.667 74.24 42.667 192 138.24 405.333 256 405.333m-64-106.666V85.333h42.667v71.04l42.666-71.04H320L256 192l64 106.667h-42.667l-42.666-71.04v71.04H192z"/><glyph glyph-name="alpha-k-circle-outline" unicode="ﯧ" horiz-adv-x="512" d="M192 298.667h42.667v-71.04l42.666 71.04H320L256 192l64-106.667h-42.667l-42.666 71.04v-71.04H192v213.334m64 106.666c117.76 0 213.333-95.573 213.333-213.333S373.76-21.333 256-21.333 42.667 74.24 42.667 192 138.24 405.333 256 405.333m0-42.666c-94.293 0-170.667-76.374-170.667-170.667S161.707 21.333 256 21.333 426.667 97.707 426.667 192 350.293 362.667 256 362.667z"/><glyph glyph-name="alpha-l" unicode="L" horiz-adv-x="512" d="M192 298.667V85.333h128V128h-85.333v170.667H192z"/><glyph glyph-name="alpha-l-box" unicode="﫸" horiz-adv-x="512" d="M192 298.667V85.333h128V128h-85.333v170.667H192M106.667 384h298.666C428.8 384 448 364.8 448 341.333V42.667C448 19.2 428.8 0 405.333 0H106.667C83.2 0 64 19.2 64 42.667v298.666C64 364.8 83.2 384 106.667 384z"/><glyph glyph-name="alpha-l-box-outline" unicode="ﯨ" horiz-adv-x="512" d="M192 298.667h42.667V128H320V85.333H192v213.334M106.667 384h298.666C428.8 384 448 364.8 448 341.333V42.667C448 19.2 428.8 0 405.333 0H106.667C83.2 0 64 19.2 64 42.667v298.666C64 364.8 83.2 384 106.667 384m0-42.667V42.667h298.666v298.666H106.667z"/><glyph glyph-name="alpha-l-circle" unicode="ﯩ" horiz-adv-x="512" d="M192 298.667V85.333h128V128h-85.333v170.667H192m64 106.666c117.76 0 213.333-95.573 213.333-213.333S373.76-21.333 256-21.333 42.667 74.24 42.667 192 138.24 405.333 256 405.333z"/><glyph glyph-name="alpha-l-circle-outline" unicode="ﯪ" horiz-adv-x="512" d="M192 298.667h42.667V128H320V85.333H192v213.334m64 106.666c117.76 0 213.333-95.573 213.333-213.333S373.76-21.333 256-21.333 42.667 74.24 42.667 192 138.24 405.333 256 405.333m0-42.666c-94.293 0-170.667-76.374-170.667-170.667S161.707 21.333 256 21.333 426.667 97.707 426.667 192 350.293 362.667 256 362.667z"/><glyph glyph-name="alpha-m" unicode="M" horiz-adv-x="512" d="M192 298.667c-23.467 0-42.667-19.2-42.667-42.667V85.333H192V256h42.667V106.667h42.666V256H320V85.333h42.667V256c0 23.467-19.2 42.667-42.667 42.667H192z"/><glyph glyph-name="alpha-m-box" unicode="﫹" horiz-adv-x="512" d="M192 298.667c-23.467 0-42.667-19.2-42.667-42.667V85.333H192V256h42.667V106.667h42.666V256H320V85.333h42.667V256c0 23.467-19.2 42.667-42.667 42.667H192M106.667 384h298.666C428.8 384 448 364.8 448 341.333V42.667C448 19.2 428.8 0 405.333 0H106.667C83.2 0 64 19.2 64 42.667v298.666C64 364.8 83.2 384 106.667 384z"/><glyph glyph-name="alpha-m-box-outline" unicode="ﯫ" horiz-adv-x="512" d="M192 298.667h128c23.467 0 42.667-19.2 42.667-42.667V85.333H320V256h-42.667V106.667h-42.666V256H192V85.333h-42.667V256c0 23.467 19.2 42.667 42.667 42.667M106.667 384h298.666C428.8 384 448 364.8 448 341.333V42.667C448 19.2 428.8 0 405.333 0H106.667C83.2 0 64 19.2 64 42.667v298.666C64 364.8 83.2 384 106.667 384m0-42.667V42.667h298.666v298.666H106.667z"/><glyph glyph-name="alpha-m-circle" unicode="ﯬ" horiz-adv-x="512" d="M192 298.667c-23.467 0-42.667-19.2-42.667-42.667V85.333H192V256h42.667V106.667h42.666V256H320V85.333h42.667V256c0 23.467-19.2 42.667-42.667 42.667H192m64 106.666c117.76 0 213.333-95.573 213.333-213.333S373.76-21.333 256-21.333 42.667 74.24 42.667 192 138.24 405.333 256 405.333z"/><glyph glyph-name="alpha-m-circle-outline" unicode="ﯭ" horiz-adv-x="512" d="M192 298.667h128c23.467 0 42.667-19.2 42.667-42.667V85.333H320V256h-42.667V106.667h-42.666V256H192V85.333h-42.667V256c0 23.467 19.2 42.667 42.667 42.667m64 106.666c117.76 0 213.333-95.573 213.333-213.333S373.76-21.333 256-21.333 42.667 74.24 42.667 192 138.24 405.333 256 405.333m0-42.666c-94.293 0-170.667-76.374-170.667-170.667S161.707 21.333 256 21.333 426.667 97.707 426.667 192 350.293 362.667 256 362.667z"/><glyph glyph-name="alpha-n" unicode="N" horiz-adv-x="512" d="M192 298.667V85.333h42.667V192l42.666-106.667H320v213.334h-42.667V192l-42.666 106.667H192z"/><glyph glyph-name="alpha-n-box" unicode="﫺" horiz-adv-x="512" d="M192 298.667V85.333h42.667V192l42.666-106.667H320v213.334h-42.667V192l-42.666 106.667H192M106.667 384h298.666C428.8 384 448 364.8 448 341.333V42.667C448 19.2 428.8 0 405.333 0H106.667C83.2 0 64 19.2 64 42.667v298.666C64 364.8 83.2 384 106.667 384z"/><glyph glyph-name="alpha-n-box-outline" unicode="ﯮ" horiz-adv-x="512" d="M192 298.667h42.667L277.333 192v106.667H320V85.333h-42.667L234.667 192V85.333H192v213.334M106.667 384h298.666C428.8 384 448 364.8 448 341.333V42.667C448 19.2 428.8 0 405.333 0H106.667C83.2 0 64 19.2 64 42.667v298.666C64 364.8 83.2 384 106.667 384m0-42.667V42.667h298.666v298.666H106.667z"/><glyph glyph-name="alpha-n-circle" unicode="ﯯ" horiz-adv-x="512" d="M192 298.667V85.333h42.667V192l42.666-106.667H320v213.334h-42.667V192l-42.666 106.667H192m64 106.666c117.76 0 213.333-95.573 213.333-213.333S373.76-21.333 256-21.333 42.667 74.24 42.667 192 138.24 405.333 256 405.333z"/><glyph glyph-name="alpha-n-circle-outline" unicode="ﯰ" horiz-adv-x="512" d="M192 298.667h42.667L277.333 192v106.667H320V85.333h-42.667L234.667 192V85.333H192v213.334m64 106.666c117.76 0 213.333-95.573 213.333-213.333S373.76-21.333 256-21.333 42.667 74.24 42.667 192 138.24 405.333 256 405.333m0-42.666c-94.293 0-170.667-76.374-170.667-170.667S161.707 21.333 256 21.333 426.667 97.707 426.667 192 350.293 362.667 256 362.667z"/><glyph glyph-name="alpha-o" unicode="O" horiz-adv-x="512" d="M234.667 298.667C211.2 298.667 192 279.467 192 256V128c0-23.467 19.2-42.667 42.667-42.667h42.666C300.8 85.333 320 104.533 320 128v128c0 23.467-19.2 42.667-42.667 42.667h-42.666m0-42.667h42.666V128h-42.666v128z"/><glyph glyph-name="alpha-o-box" unicode="﫻" horiz-adv-x="512" d="M234.667 298.667C211.2 298.667 192 279.467 192 256V128c0-23.467 19.2-42.667 42.667-42.667h42.666C300.8 85.333 320 104.533 320 128v128c0 23.467-19.2 42.667-42.667 42.667h-42.666m0-42.667h42.666V128h-42.666v128m-128 128h298.666C428.8 384 448 364.8 448 341.333V42.667C448 19.2 428.8 0 405.333 0H106.667C83.2 0 64 19.2 64 42.667v298.666C64 364.8 83.2 384 106.667 384z"/><glyph glyph-name="alpha-o-box-outline" unicode="ﯱ" horiz-adv-x="512" d="M106.667 384h298.666C428.8 384 448 364.8 448 341.333V42.667C448 19.2 428.8 0 405.333 0H106.667C83.2 0 64 19.2 64 42.667v298.666C64 364.8 83.2 384 106.667 384m0-42.667V42.667h298.666v298.666H106.667m128-42.666h42.666C300.8 298.667 320 279.467 320 256V128c0-23.467-19.2-42.667-42.667-42.667h-42.666C211.2 85.333 192 104.533 192 128v128c0 23.467 19.2 42.667 42.667 42.667m0-42.667V128h42.666v128h-42.666z"/><glyph glyph-name="alpha-o-circle" unicode="ﯲ" horiz-adv-x="512" d="M234.667 298.667C211.2 298.667 192 279.467 192 256V128c0-23.467 19.2-42.667 42.667-42.667h42.666C300.8 85.333 320 104.533 320 128v128c0 23.467-19.2 42.667-42.667 42.667h-42.666m0-42.667h42.666V128h-42.666v128M256 405.333c117.76 0 213.333-95.573 213.333-213.333S373.76-21.333 256-21.333 42.667 74.24 42.667 192 138.24 405.333 256 405.333z"/><glyph glyph-name="alpha-o-circle-outline" unicode="ﯳ" horiz-adv-x="512" d="M234.667 298.667h42.666C300.8 298.667 320 279.467 320 256V128c0-23.467-19.2-42.667-42.667-42.667h-42.666C211.2 85.333 192 104.533 192 128v128c0 23.467 19.2 42.667 42.667 42.667m0-42.667V128h42.666v128h-42.666M256 405.333c117.76 0 213.333-95.573 213.333-213.333S373.76-21.333 256-21.333 42.667 74.24 42.667 192 138.24 405.333 256 405.333m0-42.666c-94.293 0-170.667-76.374-170.667-170.667S161.707 21.333 256 21.333 426.667 97.707 426.667 192 350.293 362.667 256 362.667z"/><glyph glyph-name="alpha-p" unicode="P" horiz-adv-x="512" d="M192 298.667V85.333h42.667v85.334h42.666c23.467 0 42.667 19.2 42.667 42.666V256c0 23.467-19.2 42.667-42.667 42.667H192M234.667 256h42.666v-42.667h-42.666V256z"/><glyph glyph-name="alpha-p-box" unicode="﫼" horiz-adv-x="512" d="M192 298.667V85.333h42.667v85.334h42.666c23.467 0 42.667 19.2 42.667 42.666V256c0 23.467-19.2 42.667-42.667 42.667H192M234.667 256h42.666v-42.667h-42.666V256m-128 128h298.666C428.8 384 448 364.8 448 341.333V42.667C448 19.2 428.8 0 405.333 0H106.667C83.2 0 64 19.2 64 42.667v298.666C64 364.8 83.2 384 106.667 384z"/><glyph glyph-name="alpha-p-box-outline" unicode="ﯴ" horiz-adv-x="512" d="M192 298.667h85.333C300.8 298.667 320 279.467 320 256v-42.667c0-23.466-19.2-42.666-42.667-42.666h-42.666V85.333H192v213.334M234.667 256v-42.667h42.666V256h-42.666m-128 128h298.666C428.8 384 448 364.8 448 341.333V42.667C448 19.2 428.8 0 405.333 0H106.667C83.2 0 64 19.2 64 42.667v298.666C64 364.8 83.2 384 106.667 384m0-42.667V42.667h298.666v298.666H106.667z"/><glyph glyph-name="alpha-p-circle" unicode="ﯵ" horiz-adv-x="512" d="M192 298.667V85.333h42.667v85.334h42.666c23.467 0 42.667 19.2 42.667 42.666V256c0 23.467-19.2 42.667-42.667 42.667H192M234.667 256h42.666v-42.667h-42.666V256M256 405.333c117.76 0 213.333-95.573 213.333-213.333S373.76-21.333 256-21.333 42.667 74.24 42.667 192 138.24 405.333 256 405.333z"/><glyph glyph-name="alpha-p-circle-outline" unicode="ﯶ" horiz-adv-x="512" d="M192 298.667h85.333C300.8 298.667 320 279.467 320 256v-42.667c0-23.466-19.2-42.666-42.667-42.666h-42.666V85.333H192v213.334M234.667 256v-42.667h42.666V256h-42.666M256 405.333c117.76 0 213.333-95.573 213.333-213.333S373.76-21.333 256-21.333 42.667 74.24 42.667 192 138.24 405.333 256 405.333m0-42.666c-94.293 0-170.667-76.374-170.667-170.667S161.707 21.333 256 21.333 426.667 97.707 426.667 192 350.293 362.667 256 362.667z"/><glyph glyph-name="alpha-q" unicode="Q" horiz-adv-x="512" d="M234.667 298.667C211.2 298.667 192 279.467 192 256V128c0-23.467 19.2-42.667 42.667-42.667V42.667h42.666v42.666C300.8 85.333 320 104.533 320 128v128c0 23.467-19.2 42.667-42.667 42.667h-42.666m0-42.667h42.666V128h-42.666v128z"/><glyph glyph-name="alpha-q-box" unicode="﫽" horiz-adv-x="512" d="M234.667 298.667C211.2 298.667 192 279.467 192 256V128c0-23.467 19.2-42.667 42.667-42.667V42.667h42.666v42.666C300.8 85.333 320 104.533 320 128v128c0 23.467-19.2 42.667-42.667 42.667h-42.666m0-42.667h42.666V128h-42.666v128m-128 106.667h298.666C428.8 362.667 448 343.467 448 320V21.333c0-23.466-19.2-42.666-42.667-42.666H106.667C83.2-21.333 64-2.133 64 21.333V320c0 23.467 19.2 42.667 42.667 42.667z"/><glyph glyph-name="alpha-q-box-outline" unicode="ﯷ" horiz-adv-x="512" d="M106.667 362.667h298.666C428.8 362.667 448 343.467 448 320V21.333c0-23.466-19.2-42.666-42.667-42.666H106.667C83.2-21.333 64-2.133 64 21.333V320c0 23.467 19.2 42.667 42.667 42.667m0-42.667V21.333h298.666V320H106.667m128-21.333h42.666C300.8 298.667 320 279.467 320 256V128c0-23.467-19.2-42.667-42.667-42.667V42.667h-42.666v42.666C211.2 85.333 192 104.533 192 128v128c0 23.467 19.2 42.667 42.667 42.667m0-42.667V128h42.666v128h-42.666z"/><glyph glyph-name="alpha-q-circle" unicode="ﯸ" horiz-adv-x="512" d="M256 405.333c117.76 0 213.333-95.573 213.333-213.333S373.76-21.333 256-21.333 42.667 74.24 42.667 192 138.24 405.333 256 405.333m-21.333-106.666C211.2 298.667 192 279.467 192 256V128c0-23.467 19.2-42.667 42.667-42.667V42.667h42.666v42.666C300.8 85.333 320 104.533 320 128v128c0 23.467-19.2 42.667-42.667 42.667h-42.666m0-42.667h42.666V128h-42.666v128z"/><glyph glyph-name="alpha-q-circle-outline" unicode="ﯹ" horiz-adv-x="512" d="M256 405.333c117.76 0 213.333-95.573 213.333-213.333S373.76-21.333 256-21.333 42.667 74.24 42.667 192 138.24 405.333 256 405.333m0-42.666c-94.293 0-170.667-76.374-170.667-170.667S161.707 21.333 256 21.333 426.667 97.707 426.667 192 350.293 362.667 256 362.667m-21.333-64h42.666C300.8 298.667 320 279.467 320 256V128c0-23.467-19.2-42.667-42.667-42.667V42.667h-42.666v42.666C211.2 85.333 192 104.533 192 128v128c0 23.467 19.2 42.667 42.667 42.667m0-42.667V128h42.666v128h-42.666z"/><glyph glyph-name="alpha-r" unicode="R" horiz-adv-x="512" d="M192 298.667V85.333h42.667v85.334h17.066l25.6-85.334H320l-26.453 88.534c15.786 6.4 26.453 21.546 26.453 39.466V256c0 23.467-19.2 42.667-42.667 42.667H192M234.667 256h42.666v-42.667h-42.666V256z"/><glyph glyph-name="alpha-r-box" unicode="﫾" horiz-adv-x="512" d="M192 298.667V85.333h42.667v85.334h17.066l25.6-85.334H320l-26.453 88.534c15.786 6.4 26.453 21.546 26.453 39.466V256c0 23.467-19.2 42.667-42.667 42.667H192M234.667 256h42.666v-42.667h-42.666V256m-128 128h298.666C428.8 384 448 364.8 448 341.333V42.667C448 19.2 428.8 0 405.333 0H106.667C83.2 0 64 19.2 64 42.667v298.666C64 364.8 83.2 384 106.667 384z"/><glyph glyph-name="alpha-r-box-outline" unicode="ﯺ" horiz-adv-x="512" d="M192 298.667h85.333C300.8 298.667 320 279.467 320 256v-42.667c0-17.92-10.667-33.066-26.453-39.466L320 85.333h-42.667l-25.6 85.334h-17.066V85.333H192v213.334M234.667 256v-42.667h42.666V256h-42.666m-128 128h298.666C428.8 384 448 364.8 448 341.333V42.667C448 19.2 428.8 0 405.333 0H106.667C83.2 0 64 19.2 64 42.667v298.666C64 364.8 83.2 384 106.667 384m0-42.667V42.667h298.666v298.666H106.667z"/><glyph glyph-name="alpha-r-circle" unicode="ﯻ" horiz-adv-x="512" d="M192 298.667V85.333h42.667v85.334h17.066l25.6-85.334H320l-26.453 88.534c15.786 6.4 26.453 21.546 26.453 39.466V256c0 23.467-19.2 42.667-42.667 42.667H192M234.667 256h42.666v-42.667h-42.666V256M256 405.333c117.76 0 213.333-95.573 213.333-213.333S373.76-21.333 256-21.333 42.667 74.24 42.667 192 138.24 405.333 256 405.333z"/><glyph glyph-name="alpha-r-circle-outline" unicode="ﯼ" horiz-adv-x="512" d="M192 298.667h85.333C300.8 298.667 320 279.467 320 256v-42.667c0-17.92-10.667-33.066-26.453-39.466L320 85.333h-42.667l-25.6 85.334h-17.066V85.333H192v213.334M234.667 256v-42.667h42.666V256h-42.666M256 405.333c117.76 0 213.333-95.573 213.333-213.333S373.76-21.333 256-21.333 42.667 74.24 42.667 192 138.24 405.333 256 405.333m0-42.666c-94.293 0-170.667-76.374-170.667-170.667 0-94.08 76.374-170.667 170.667-170.667S426.667 97.707 426.667 192 350.293 362.667 256 362.667z"/><glyph glyph-name="alpha-s" unicode="S" horiz-adv-x="512" d="M234.667 298.667C211.2 298.667 192 279.467 192 256v-42.667c0-23.466 19.2-42.666 42.667-42.666h42.666V128H192V85.333h85.333C300.8 85.333 320 104.533 320 128v42.667c0 23.466-19.2 42.666-42.667 42.666h-42.666V256H320v42.667h-85.333z"/><glyph glyph-name="alpha-s-box" unicode="﫿" horiz-adv-x="512" d="M234.667 298.667C211.2 298.667 192 279.467 192 256v-42.667c0-23.466 19.2-42.666 42.667-42.666h42.666V128H192V85.333h85.333C300.8 85.333 320 104.533 320 128v42.667c0 23.466-19.2 42.666-42.667 42.666h-42.666V256H320v42.667h-85.333m-128 85.333h298.666C428.8 384 448 364.8 448 341.333V42.667C448 19.2 428.8 0 405.333 0H106.667C83.2 0 64 19.2 64 42.667v298.666C64 364.8 83.2 384 106.667 384z"/><glyph glyph-name="alpha-s-box-outline" unicode="ﯽ" horiz-adv-x="512" d="M234.667 298.667H320V256h-85.333v-42.667h42.666c23.467 0 42.667-19.2 42.667-42.666V128c0-23.467-19.2-42.667-42.667-42.667H192V128h85.333v42.667h-42.666c-23.467 0-42.667 19.2-42.667 42.666V256c0 23.467 19.2 42.667 42.667 42.667m-128 85.333h298.666C428.8 384 448 364.8 448 341.333V42.667C448 19.2 428.8 0 405.333 0H106.667C83.2 0 64 19.2 64 42.667v298.666C64 364.8 83.2 384 106.667 384m0-42.667V42.667h298.666v298.666H106.667z"/><glyph glyph-name="alpha-s-circle" unicode="ﯾ" horiz-adv-x="512" d="M234.667 298.667C211.2 298.667 192 279.467 192 256v-42.667c0-23.466 19.2-42.666 42.667-42.666h42.666V128H192V85.333h85.333C300.8 85.333 320 104.533 320 128v42.667c0 23.466-19.2 42.666-42.667 42.666h-42.666V256H320v42.667h-85.333M256 405.333c117.76 0 213.333-95.573 213.333-213.333S373.76-21.333 256-21.333 42.667 74.24 42.667 192 138.24 405.333 256 405.333z"/><glyph glyph-name="alpha-s-circle-outline" unicode="ﯿ" horiz-adv-x="512" d="M234.667 298.667H320V256h-85.333v-42.667h42.666c23.467 0 42.667-19.2 42.667-42.666V128c0-23.467-19.2-42.667-42.667-42.667H192V128h85.333v42.667h-42.666c-23.467 0-42.667 19.2-42.667 42.666V256c0 23.467 19.2 42.667 42.667 42.667M256 405.333c117.76 0 213.333-95.573 213.333-213.333S373.76-21.333 256-21.333 42.667 74.24 42.667 192 138.24 405.333 256 405.333m0-42.666c-94.293 0-170.667-76.374-170.667-170.667S161.707 21.333 256 21.333 426.667 97.707 426.667 192 350.293 362.667 256 362.667z"/><glyph glyph-name="alpha-t" unicode="T" horiz-adv-x="512" d="M192 298.667V256h42.667V85.333h42.666V256H320v42.667H192z"/><glyph glyph-name="alpha-t-box" unicode="ﬀ" horiz-adv-x="512" d="M192 298.667V256h42.667V85.333h42.666V256H320v42.667H192M106.667 384h298.666C428.8 384 448 364.8 448 341.333V42.667C448 19.2 428.8 0 405.333 0H106.667C83.2 0 64 19.2 64 42.667v298.666C64 364.8 83.2 384 106.667 384z"/><glyph glyph-name="alpha-t-box-outline" unicode="ﰀ" horiz-adv-x="512" d="M192 298.667h128V256h-42.667V85.333h-42.666V256H192v42.667M106.667 384h298.666C428.8 384 448 364.8 448 341.333V42.667C448 19.2 428.8 0 405.333 0H106.667C83.2 0 64 19.2 64 42.667v298.666C64 364.8 83.2 384 106.667 384m0-42.667V42.667h298.666v298.666H106.667z"/><glyph glyph-name="alpha-t-circle" unicode="ﰁ" horiz-adv-x="512" d="M192 298.667V256h42.667V85.333h42.666V256H320v42.667H192m64 106.666c117.76 0 213.333-95.573 213.333-213.333S373.76-21.333 256-21.333 42.667 74.24 42.667 192 138.24 405.333 256 405.333z"/></font>
</defs>
</svg>
