<?xml version="1.0" encoding="utf-8"?>
<!-- Generator: Adobe Illustrator 26.5.0, SVG Export Plug-In . SVG Version: 6.00 Build 0)  -->
<svg version="1.1" id="Ebene_1" xmlns="http://www.w3.org/2000/svg" xmlns:xlink="http://www.w3.org/1999/xlink" x="0px" y="0px"
	 viewBox="0 0 673.47 722.49" style="enable-background:new 0 0 673.47 722.49;" xml:space="preserve">
<style type="text/css">
	.st0{fill:#F2F2F2;}
</style>
<path class="st0" d="M651.42,228.24c-60.85,51.18-92.46,94.8-99.91,105.69c0,0.02,0,0.03,0,0.05
	c1.42,86.34-28.15,168.15-50.15,216.73c39.98-24.28,89.26-65.02,118.74-128.7l0,0C659.32,337.31,659.75,271.5,651.42,228.24z"/>
<path class="st0" d="M646.33,207.44c-0.05-0.18-0.1-0.36-0.15-0.53c-2.99-10.12-6.9-19.95-11.68-29.36
	c-17.24,6.73-56.21,25.49-96.38,68.97c5.66,18.49,9.52,37.49,11.52,56.73C566.8,281.58,598.73,246.5,646.33,207.44z"/>
<path class="st0" d="M298.67,20.88c-0.2-0.07-0.4-0.15-0.59-0.21c-10.31-3.64-20.85-6.59-31.56-8.81
	c-25.13,29.67-143.01,183.42-63.67,369.93c40.68,95.63,123.09,145.6,185.48,170.76c0.11,0.04,0.21,0.08,0.31,0.12
	C324.51,465.51,231.5,283.62,298.67,20.88z"/>
<path class="st0" d="M510.68,247.67l-2.43-7.18C459.77,109.65,374.24,52.52,317.22,28.11c-71.14,281.83,47.26,466.57,106.05,536.85
	c16.02,4.94,28.92,7.91,36.87,9.52l0,0c11.18-20.87,40.87-80.69,55.88-153.12c0.01-0.04,0.02-0.09,0.03-0.13
	c0.17-0.83,0.34-1.66,0.51-2.5C527.35,364.97,529.9,304.36,510.68,247.67z"/>
<path class="st0" d="M421.89,593.39l0.57-0.38c-52.89-15.28-143.12-52.46-204.42-132.98c-16.54,7.11-32.45,15.63-47.53,25.46
	C93.05,535.92,53.61,590.95,33.65,631.56c-0.11,0.22-0.21,0.43-0.31,0.66C212.12,676.57,341.56,639.33,421.89,593.39z"/>
<path class="st0" d="M25.21,650.55c-4.32,10.7-7.73,21.74-10.19,33.01c32.95,14.7,159.32,62.04,304.57-0.12l0,0
	c26.69-12.2,58.63-31.05,88.89-60.51c-54.82,27.16-127.46,48.99-217.62,48.99C141.92,671.91,85.22,665.71,25.21,650.55z"/>
</svg>
